<?xml version="1.0" encoding="utf-8"?>
<!-- Generator: Adobe Illustrator 27.5.0, SVG Export Plug-In . SVG Version: 6.00 Build 0)  -->
<svg version="1.1" id="Layer_1" xmlns="http://www.w3.org/2000/svg" xmlns:xlink="http://www.w3.org/1999/xlink" x="0px" y="0px"
	 viewBox="0 0 1200 1200" style="enable-background:new 0 0 1200 1200;" xml:space="preserve">
<g>
	<rect x="800" style="fill:#7C6759;" width="400" height="400"/>
	<rect x="400" style="fill:#E27866;" width="400" height="400"/>
	<rect x="0" y="400" style="fill:#E27866;" width="400" height="400"/>
	<rect style="fill:#E5D3B3;" width="400" height="400"/>
	<rect x="400" y="400" style="fill:#7C6759;" width="400" height="400"/>
	<rect x="800" y="400" style="fill:#E5D3B3;" width="400" height="400"/>
	<rect x="0" y="800" style="fill:#7C6759;" width="400" height="400"/>
	<rect x="400" y="800" style="fill:#E5D3B3;" width="400" height="400"/>
	<rect x="800" y="800" style="fill:#E27866;" width="400" height="400"/>
</g>
<g id="success">
	<g>
		<g>
			<path style="fill:#68564A;" d="M934.799,1116.378h7.076v8.139c0,0.808,0.49,1.212,1.473,1.212c0.947,0,1.422-0.404,1.422-1.212
				v-4.206c0-1.286-0.858-2.796-2.573-4.527c-3.315-3.216-5.378-5.376-6.185-6.482c-0.809-1.104-1.212-2.316-1.212-3.637v-3.983
				c0-4.602,3.005-6.902,9.018-6.902c5.384,0,8.077,2.095,8.077,6.284v6.135h-7.076v-6.531c0-0.708-0.396-1.064-1.186-1.064
				c-0.924,0-1.387,0.685-1.387,2.053l0.148,2.301c0,1.32,0.876,2.854,2.629,4.602c3.257,3.117,5.328,5.294,6.212,6.531
				c0.884,1.237,1.327,2.639,1.327,4.206v4.528c0,4.717-3.014,7.075-9.043,7.075c-5.814,0-8.72-2.143-8.72-6.432V1116.378z"/>
			<path style="fill:#68564A;" d="M954.17,1095.101h7.793v29.787c0,0.71,0.436,1.064,1.311,1.064c0.857,0,1.286-0.354,1.286-1.064
				v-29.787h7.793v29.366c0,2.046-0.85,3.629-2.548,4.75c-1.699,1.122-3.876,1.682-6.531,1.682c-2.458,0-4.59-0.503-6.396-1.509
				c-1.806-1.005-2.708-2.63-2.708-4.874V1095.101z"/>
			<path style="fill:#68564A;" d="M991.081,1107.496h-7.076v-7.026c0-0.577-0.359-0.866-1.076-0.866
				c-0.751,0-1.126,0.289-1.126,0.866v24.616c0,0.578,0.375,0.866,1.126,0.866c0.716,0,1.076-0.288,1.076-0.866v-8.758h7.076v9.005
				c0,1.682-0.826,3.031-2.474,4.046c-1.65,1.014-3.513,1.521-5.591,1.521c-6.004,0-9.005-2.128-9.005-6.383v-22.835
				c0-4.602,3.001-6.902,9.005-6.902c5.376,0,8.065,2.095,8.065,6.284V1107.496z"/>
			<path style="fill:#68564A;" d="M1009.834,1107.496h-7.076v-7.026c0-0.577-0.359-0.866-1.076-0.866
				c-0.751,0-1.126,0.289-1.126,0.866v24.616c0,0.578,0.375,0.866,1.126,0.866c0.716,0,1.076-0.288,1.076-0.866v-8.758h7.076v9.005
				c0,1.682-0.826,3.031-2.474,4.046c-1.65,1.014-3.513,1.521-5.591,1.521c-6.004,0-9.005-2.128-9.005-6.383v-22.835
				c0-4.602,3.001-6.902,9.005-6.902c5.376,0,8.065,2.095,8.065,6.284V1107.496z"/>
			<path style="fill:#68564A;" d="M1026.781,1130.578h-15.24v-35.477h15.141v4.552h-7.348v9.599h6.63v4.305h-6.63v12.469h7.447
				V1130.578z"/>
			<path style="fill:#68564A;" d="M1028.042,1116.378h7.075v8.139c0,0.808,0.49,1.212,1.473,1.212c0.947,0,1.422-0.404,1.422-1.212
				v-4.206c0-1.286-0.858-2.796-2.573-4.527c-3.315-3.216-5.378-5.376-6.185-6.482c-0.809-1.104-1.212-2.316-1.212-3.637v-3.983
				c0-4.602,3.005-6.902,9.018-6.902c5.384,0,8.077,2.095,8.077,6.284v6.135h-7.076v-6.531c0-0.708-0.396-1.064-1.186-1.064
				c-0.925,0-1.387,0.685-1.387,2.053l0.149,2.301c0,1.32,0.876,2.854,2.629,4.602c3.256,3.117,5.328,5.294,6.212,6.531
				c0.884,1.237,1.327,2.639,1.327,4.206v4.528c0,4.717-3.014,7.075-9.043,7.075c-5.814,0-8.72-2.143-8.72-6.432V1116.378z"/>
			<path style="fill:#68564A;" d="M1047.438,1116.378h7.075v8.139c0,0.808,0.49,1.212,1.473,1.212c0.946,0,1.422-0.404,1.422-1.212
				v-4.206c0-1.286-0.858-2.796-2.573-4.527c-3.315-3.216-5.378-5.376-6.185-6.482c-0.808-1.104-1.212-2.316-1.212-3.637v-3.983
				c0-4.602,3.005-6.902,9.018-6.902c5.384,0,8.077,2.095,8.077,6.284v6.135h-7.076v-6.531c0-0.708-0.396-1.064-1.186-1.064
				c-0.925,0-1.387,0.685-1.387,2.053l0.148,2.301c0,1.32,0.876,2.854,2.629,4.602c3.256,3.117,5.328,5.294,6.212,6.531
				c0.884,1.237,1.327,2.639,1.327,4.206v4.528c0,4.717-3.014,7.075-9.043,7.075c-5.814,0-8.72-2.143-8.72-6.432V1116.378z"/>
		</g>
	</g>
	<g>
		<g>
			<path style="fill:#735F4F;" d="M1012.091,880.079c0,6.882-5.579,12.461-12.461,12.461s-12.461-5.579-12.461-12.461
				c0-6.882,5.579-12.461,12.461-12.461S1012.091,873.197,1012.091,880.079z"/>
			<path style="fill:#735F4F;" d="M1013.174,934.831c0,2.842-2.114,5.145-4.721,5.145h-17.644c-2.607,0-4.721-2.304-4.721-5.145
				V901.27c0-2.841,2.114-5.145,4.721-5.145h17.644c2.607,0,4.721,2.303,4.721,5.145V934.831z"/>
			<g>
				<path style="fill:#735F4F;" d="M998.522,973.24c0,3.456-2.531,6.258-5.652,6.258h-1.13c-3.122,0-5.652-2.802-5.652-6.258
					v-46.514c0-3.456,2.531-6.258,5.652-6.258h1.13c3.122,0,5.652,2.802,5.652,6.258V973.24z"/>
				<path style="fill:#735F4F;" d="M1013.174,973.24c0,3.456-2.53,6.258-5.652,6.258h-1.13c-3.122,0-5.652-2.802-5.652-6.258
					v-46.514c0-3.456,2.531-6.258,5.652-6.258h1.13c3.122,0,5.652,2.802,5.652,6.258V973.24z"/>
			</g>
			<g>
				<path style="fill:#735F4F;" d="M1039.311,872.46c1.735-1.85,4.558-2.022,6.305-0.383l0.633,0.593
					c1.747,1.638,1.757,4.466,0.022,6.316l-23.349,24.897c-1.735,1.85-4.558,2.021-6.305,0.383l-0.633-0.593
					c-1.747-1.638-1.757-4.466-0.022-6.316L1039.311,872.46z"/>
				<path style="fill:#735F4F;" d="M959.95,872.46c-1.735-1.85-4.558-2.022-6.305-0.383l-0.633,0.593
					c-1.747,1.638-1.757,4.466-0.022,6.316l23.349,24.897c1.735,1.85,4.557,2.021,6.305,0.383l0.633-0.593
					c1.747-1.638,1.757-4.466,0.022-6.316L959.95,872.46z"/>
			</g>
			<path style="fill:#735F4F;" d="M1018.498,905.391h-37.735c-3.032,0-5.513-2.481-5.513-5.513l0,0c0-3.032,2.481-5.513,5.513-5.513
				h37.735c3.032,0,5.513,2.481,5.513,5.513l0,0C1024.011,902.91,1021.53,905.391,1018.498,905.391z"/>
		</g>
		<g>
			<g>
				<g>
					<rect x="927.991" y="1018.131" style="fill:#E5D3B3;" width="144.018" height="40.269"/>
					<rect x="927.991" y="1010.909" style="fill:#E5D3B3;" width="45.634" height="47.491"/>
					<rect x="973.625" y="986.872" style="fill:#E5D3B3;" width="52.75" height="71.528"/>
				</g>
			</g>
			<g>
				<g>
					<path style="fill:#735F4F;" d="M956.926,1029.805h-7.125v-1.883l3.507-6.44c0.383-0.701,0.576-1.659,0.576-2.873
						c0-0.635-0.212-0.951-0.635-0.951c-0.436,0-0.654,0.198-0.654,0.594v2.438h-2.794v-2.477c0-1.83,1.176-2.745,3.528-2.745
						c1.452,0,2.416,0.335,2.889,1.005c0.472,0.671,0.708,1.772,0.708,3.304c0,0.602-0.103,1.097-0.308,1.487l-3.512,6.719h3.819
						V1029.805z"/>
				</g>
			</g>
			<g>
				<g>
					<g>
						<path style="fill:#735F4F;" d="M1002.155,1011.414h-3.121V1001h-1.189v-2.071c0.452,0,0.835-0.195,1.147-0.585
							c0.312-0.39,0.467-0.769,0.467-1.139h2.695V1011.414z"/>
					</g>
				</g>
				<path style="fill:#735F4F;" d="M1000,991.962c-6.819,0-12.347,5.528-12.347,12.348s5.528,12.347,12.347,12.347
					c6.819,0,12.348-5.528,12.348-12.347S1006.819,991.962,1000,991.962z M1000,1015.045c-5.929,0-10.735-4.806-10.735-10.735
					s4.806-10.736,10.735-10.736c5.929,0,10.735,4.807,10.735,10.736S1005.929,1015.045,1000,1015.045z"/>
			</g>
			<g>
				<g>
					<path style="fill:#735F4F;" d="M1047.256,1033.271h2.864v3.369c0,0.35,0.188,0.525,0.565,0.525
						c0.377,0,0.565-0.175,0.565-0.525v-3.29c0-0.376-0.094-0.632-0.282-0.768c-0.189-0.135-0.541-0.203-1.056-0.203v-1.605
						c0.892,0,1.338-0.277,1.338-0.833v-2.517c0-0.284-0.188-0.426-0.565-0.426c-0.39,0-0.584,0.142-0.584,0.426v2.615h-2.766
						v-2.635c0-1.678,1.161-2.517,3.484-2.517c0.93,0,1.742,0.201,2.434,0.604c0.693,0.403,1.039,1.04,1.039,1.912v1.952
						c0,1.137-0.538,1.899-1.614,2.289c1.109,0.324,1.664,1.203,1.664,2.636v2.111c0,1.975-1.173,2.962-3.517,2.962
						c-2.379,0-3.568-0.898-3.568-2.695V1033.271z"/>
				</g>
			</g>
		</g>
	</g>
</g>
<g id="connec">
	<g>
		<g>
			<path style="fill:#735F4F;" d="M525.781,1107.496h-7.076v-7.026c0-0.577-0.359-0.866-1.076-0.866
				c-0.751,0-1.126,0.289-1.126,0.866v24.616c0,0.578,0.376,0.866,1.126,0.866c0.717,0,1.076-0.288,1.076-0.866v-8.758h7.076v9.005
				c0,1.682-0.825,3.031-2.474,4.046c-1.65,1.014-3.513,1.521-5.591,1.521c-6.004,0-9.005-2.128-9.005-6.383v-22.834
				c0-4.602,3.001-6.902,9.005-6.902c5.376,0,8.065,2.095,8.065,6.284V1107.496z"/>
			<path style="fill:#735F4F;" d="M527.414,1124.517v-22.834c0-4.602,2.981-6.902,8.943-6.902c5.88,0,8.82,2.285,8.82,6.853v22.835
				c0,2.063-0.82,3.65-2.458,4.763c-1.639,1.113-3.775,1.669-6.411,1.669C530.378,1130.9,527.414,1128.772,527.414,1124.517z
				 M537.582,1124.888v-24.171c0-0.708-0.421-1.064-1.262-1.064c-0.874,0-1.311,0.356-1.311,1.064v24.171
				c0,0.71,0.437,1.064,1.311,1.064C537.161,1125.952,537.582,1125.598,537.582,1124.888z"/>
			<path style="fill:#735F4F;" d="M566.651,1130.578h-8.016l-5.294-18.901v18.901h-6.506v-35.477h8.857l4.453,16.18v-16.18h6.506
				V1130.578z"/>
			<path style="fill:#735F4F;" d="M588.174,1130.578h-8.016l-5.294-18.901v18.901h-6.506v-35.477h8.857l4.453,16.18v-16.18h6.506
				V1130.578z"/>
			<path style="fill:#735F4F;" d="M605.121,1130.578h-15.24v-35.477h15.141v4.552h-7.348v9.599h6.63v4.305h-6.63v12.469h7.447
				V1130.578z"/>
			<path style="fill:#735F4F;" d="M623.453,1107.496h-7.076v-7.026c0-0.577-0.358-0.866-1.076-0.866
				c-0.75,0-1.126,0.289-1.126,0.866v24.616c0,0.578,0.376,0.866,1.126,0.866c0.717,0,1.076-0.288,1.076-0.866v-8.758h7.076v9.005
				c0,1.682-0.824,3.031-2.474,4.046c-1.65,1.014-3.513,1.521-5.591,1.521c-6.004,0-9.005-2.128-9.005-6.383v-22.834
				c0-4.602,3.001-6.902,9.005-6.902c5.376,0,8.065,2.095,8.065,6.284V1107.496z"/>
			<path style="fill:#735F4F;" d="M641.414,1099.728h-4.354v30.85h-7.793v-30.85h-4.354v-4.626h16.501V1099.728z"/>
			<path style="fill:#735F4F;" d="M650.568,1130.578h-7.793v-35.477h7.793V1130.578z"/>
			<path style="fill:#735F4F;" d="M652.052,1124.517v-22.834c0-4.602,2.982-6.902,8.944-6.902c5.879,0,8.819,2.285,8.819,6.853
				v22.835c0,2.063-0.819,3.65-2.458,4.763c-1.638,1.113-3.775,1.669-6.41,1.669C655.017,1130.9,652.052,1128.772,652.052,1124.517z
				 M662.22,1124.888v-24.171c0-0.708-0.421-1.064-1.262-1.064c-0.874,0-1.311,0.356-1.311,1.064v24.171
				c0,0.71,0.438,1.064,1.311,1.064C661.799,1125.952,662.22,1125.598,662.22,1124.888z"/>
			<path style="fill:#735F4F;" d="M691.289,1130.578h-8.016l-5.294-18.901v18.901h-6.506v-35.477h8.857l4.453,16.18v-16.18h6.507
				V1130.578z"/>
		</g>
	</g>
	<g>
		<g>
			<path style="fill:#E27866;" d="M561.349,983.168c-7.91,0-14.323-6.412-14.323-14.323c0-7.91,6.413-14.322,14.323-14.322
				c7.91,0,14.322,6.412,14.322,14.322C575.671,976.755,569.259,983.168,561.349,983.168z"/>
			<path style="fill:#E27866;" d="M522.698,896.349v14.876c1.78-0.794,3.751-1.239,5.826-1.239c7.91,0,14.323,6.412,14.323,14.322
				c0,7.91-6.412,14.323-14.323,14.323c-2.075,0-4.046-0.445-5.826-1.239v14.876c0,0.023-0.002,0.047-0.002,0.07
				c0.007,5.876,4.816,10.681,10.693,10.681h55.92c5.867,0,10.67-4.79,10.692-10.652c0-0.014-0.001-0.027-0.001-0.041V937.45
				c-1.781,0.794-3.751,1.239-5.826,1.239c-7.91,0-14.323-6.412-14.323-14.322c0-7.91,6.413-14.323,14.323-14.323
				c2.075,0,4.046,0.445,5.826,1.239v-14.876c0-0.014,0.001-0.027,0.001-0.041c-0.022-5.863-4.825-10.652-10.692-10.652h-55.92
				c-5.858,0-10.653,4.774-10.691,10.623C522.697,896.341,522.698,896.345,522.698,896.349z"/>
		</g>
		<g>
			<g>
				<path style="fill:#735F4F;" d="M620.15,1001.652c0,7.91-6.412,14.323-14.323,14.323c-7.91,0-14.323-6.413-14.323-14.323
					s6.412-14.322,14.323-14.322C613.738,987.329,620.15,993.742,620.15,1001.652z"/>
				<path style="fill:#735F4F;" d="M533.331,1040.303h14.876c-0.794-1.781-1.239-3.751-1.239-5.826
					c0-7.91,6.412-14.323,14.323-14.323c7.91,0,14.323,6.413,14.323,14.323c0,2.075-0.445,4.046-1.239,5.826h14.876
					c0.023,0,0.047,0.002,0.07,0.002c5.876-0.007,10.681-4.816,10.681-10.693v-55.92c0-5.867-4.79-10.67-10.652-10.692
					c-0.013,0-0.027,0.001-0.04,0.001h-14.876c0.794,1.78,1.239,3.751,1.239,5.826c0,7.91-6.412,14.323-14.322,14.323
					s-14.323-6.412-14.323-14.323c0-2.076,0.445-4.046,1.239-5.826h-14.876c-0.014,0-0.027-0.001-0.041-0.001
					c-5.862,0.022-10.652,4.824-10.652,10.692v55.92c0,5.858,4.774,10.653,10.623,10.691
					C533.323,1040.303,533.327,1040.303,533.331,1040.303z"/>
			</g>
		</g>
		<g>
			<path style="fill:#E27866;" d="M638.651,942.85c7.91,0,14.323,6.413,14.323,14.323c0,7.91-6.413,14.323-14.323,14.323
				c-7.91,0-14.322-6.413-14.322-14.323C624.329,949.263,630.741,942.85,638.651,942.85z"/>
			<path style="fill:#E27866;" d="M677.302,1029.669v-14.876c-1.78,0.794-3.751,1.239-5.826,1.239
				c-7.91,0-14.323-6.412-14.323-14.322c0-7.91,6.413-14.323,14.323-14.323c2.075,0,4.046,0.445,5.826,1.239V973.75
				c0-0.023,0.002-0.047,0.002-0.07c-0.007-5.876-4.816-10.681-10.693-10.681h-55.92c-5.867,0-10.67,4.79-10.692,10.652
				c0,0.014,0.001,0.027,0.001,0.041v14.876c1.78-0.794,3.751-1.239,5.826-1.239c7.91,0,14.323,6.412,14.323,14.322
				c0,7.91-6.412,14.323-14.323,14.323c-2.075,0-4.046-0.445-5.826-1.239v14.876c0,0.014-0.001,0.027-0.001,0.041
				c0.022,5.863,4.824,10.652,10.692,10.652h55.92c5.858,0,10.653-4.774,10.691-10.623
				C677.303,1029.677,677.302,1029.673,677.302,1029.669z"/>
		</g>
		<g>
			<path style="fill:#735F4F;" d="M579.85,924.366c0-7.91,6.412-14.323,14.323-14.323s14.323,6.413,14.323,14.323
				c0,7.91-6.412,14.323-14.323,14.323S579.85,932.276,579.85,924.366z"/>
			<path style="fill:#735F4F;" d="M666.669,885.715h-14.876c0.794,1.781,1.239,3.751,1.239,5.826c0,7.91-6.412,14.323-14.322,14.323
				c-7.91,0-14.323-6.412-14.323-14.323c0-2.075,0.445-4.046,1.239-5.826h-14.876c-0.023,0-0.046-0.002-0.07-0.002
				c-5.875,0.007-10.681,4.816-10.681,10.693v55.92c0,5.868,4.79,10.67,10.652,10.692c0.014,0,0.027-0.001,0.041-0.001h14.876
				c-0.794-1.78-1.239-3.751-1.239-5.826c0-7.91,6.412-14.323,14.322-14.323c7.91,0,14.323,6.413,14.323,14.323
				c0,2.075-0.445,4.046-1.239,5.826h14.876c0.013,0,0.027,0.001,0.04,0.001c5.863-0.022,10.652-4.824,10.652-10.692v-55.92
				c0-5.858-4.774-10.653-10.623-10.691C666.677,885.715,666.673,885.715,666.669,885.715z"/>
		</g>
	</g>
</g>
<g id="imagination">
	<g>
		<g>
			<path style="fill:#E5D3B3;" d="M108.575,1130.578h-7.793v-35.477h7.793V1130.578z"/>
			<path style="fill:#E5D3B3;" d="M137.273,1130.578h-6.952v-19.915l-4.057,19.915h-5.368l-4.651-19.915v19.915h-6.086v-35.477
				h10.02l3.563,18.406l3.093-18.406h10.44V1130.578z"/>
			<path style="fill:#E5D3B3;" d="M160.058,1130.578h-7.722l-1.315-9.525h-3.458l-1.331,9.525h-7.722l5.828-35.477h9.881
				L160.058,1130.578z M150.393,1116.13l-1.121-10.589l-1.061,10.589H150.393z"/>
			<path style="fill:#E5D3B3;" d="M178.39,1130.578h-3.736l-1.014-1.954c-1.715,1.518-3.53,2.276-5.443,2.276
				c-1.864,0-3.493-0.482-4.886-1.447c-1.394-0.965-2.091-2.503-2.091-4.615v-23.156c0-4.602,2.935-6.902,8.807-6.902
				c5.574,0,8.362,2.095,8.362,6.284v6.581h-7.076v-7.175c0-0.577-0.383-0.866-1.15-0.866c-0.767,0-1.15,0.289-1.15,0.866v24.616
				c0,0.578,0.383,0.866,1.15,0.866c0.767,0,1.15-0.288,1.15-0.866v-6.63h-1.583v-5.443h8.659V1130.578z"/>
			<path style="fill:#E5D3B3;" d="M187.717,1130.578h-7.793v-35.477h7.793V1130.578z"/>
			<path style="fill:#E5D3B3;" d="M209.092,1130.578h-8.016l-5.294-18.901v18.901h-6.507v-35.477h8.857l4.453,16.18v-16.18h6.507
				V1130.578z"/>
			<path style="fill:#E5D3B3;" d="M231.852,1130.578h-7.722l-1.315-9.525h-3.458l-1.331,9.525h-7.722l5.828-35.477h9.881
				L231.852,1130.578z M222.187,1116.13l-1.121-10.589l-1.061,10.589H222.187z"/>
			<path style="fill:#E5D3B3;" d="M249.343,1099.728h-4.354v30.85h-7.793v-30.85h-4.354v-4.626h16.501V1099.728z"/>
			<path style="fill:#E5D3B3;" d="M258.497,1130.578h-7.793v-35.477h7.793V1130.578z"/>
			<path style="fill:#E5D3B3;" d="M259.981,1124.517v-22.835c0-4.602,2.981-6.902,8.943-6.902c5.879,0,8.82,2.285,8.82,6.853v22.835
				c0,2.063-0.82,3.65-2.458,4.763c-1.639,1.113-3.775,1.669-6.411,1.669C262.945,1130.9,259.981,1128.772,259.981,1124.517z
				 M270.149,1124.888v-24.171c0-0.708-0.421-1.064-1.262-1.064c-0.874,0-1.311,0.356-1.311,1.064v24.171
				c0,0.71,0.437,1.064,1.311,1.064C269.728,1125.952,270.149,1125.598,270.149,1124.888z"/>
			<path style="fill:#E5D3B3;" d="M299.218,1130.578h-8.016l-5.294-18.901v18.901h-6.507v-35.477h8.857l4.453,16.18v-16.18h6.507
				V1130.578z"/>
		</g>
	</g>
	<g>
		<polygon style="fill:#D3C1A3;" points="171.194,989.365 169.785,1042.471 175.962,1042.471 182.139,1042.471 180.73,989.365 		"/>
		<path style="fill:#D3C1A3;" d="M141.269,1058.294c0.015,0.037,0.036,0.07,0.051,0.106h69.282c0.016-0.036,0.036-0.069,0.051-0.106
			c0.294-0.708,0.532-1.454,0.705-2.229c0.221-0.989,0.339-2.026,0.339-3.094c0-3.708-1.419-7.031-3.663-9.294
			c0.019-0.299,0.032-0.601,0.032-0.906c0-6.818-4.793-12.346-10.705-12.346c-0.078,0-0.156,0.005-0.234,0.007
			c-1.946-2.318-4.671-3.761-7.69-3.761c-1.54,0-3.003,0.378-4.327,1.053c-1.958-2.917-5.022-4.798-8.469-4.798
			c-3.227,0-6.118,1.649-8.081,4.254c-1.288-0.633-2.706-0.984-4.194-0.984c-3.645,0-6.863,2.103-8.796,5.312
			c-5.011,0.468-9.044,4.913-9.725,10.596c-3.348,2.087-5.622,6.17-5.622,10.867c0,1.068,0.118,2.105,0.339,3.094
			C140.738,1056.84,140.975,1057.585,141.269,1058.294z"/>
		<polygon style="fill:#E5D3B3;" points="172.94,989.365 172.047,1042.471 175.962,1042.471 179.877,1042.471 178.984,989.365 		"/>
		<path style="fill:#E5D3B3;" d="M207.696,1058.4c0.013-0.258,0.039-0.511,0.039-0.773c0-3.624-1.262-6.872-3.257-9.084
			c0.017-0.293,0.028-0.587,0.028-0.885c0-6.665-4.261-12.068-9.518-12.068c-0.07,0-0.138,0.005-0.208,0.007
			c-1.73-2.266-4.153-3.676-6.837-3.676c-1.369,0-2.67,0.37-3.847,1.03c-1.741-2.852-4.465-4.69-7.53-4.69
			c-2.869,0-5.44,1.612-7.185,4.158c-1.145-0.619-2.406-0.962-3.729-0.962c-3.241,0-6.101,2.055-7.82,5.192
			c-4.455,0.458-8.041,4.802-8.647,10.357c-2.976,2.04-4.998,6.031-4.998,10.622c0,0.262,0.026,0.515,0.038,0.773H207.696z"/>
		<polygon style="fill:#F7E3C6;" points="174.939,989.365 174.636,1042.471 175.962,1042.471 177.287,1042.471 176.985,989.365 		
			"/>
		<path style="fill:#F7E3C6;" d="M198.082,1058.4c0.138-0.678,0.212-1.389,0.212-2.122c0-2.547-0.887-4.83-2.289-6.385
			c0.012-0.206,0.02-0.413,0.02-0.622c0-4.684-2.995-8.482-6.69-8.482c-0.049,0-0.097,0.003-0.146,0.005
			c-1.216-1.592-2.919-2.584-4.805-2.584c-0.963,0-1.877,0.26-2.704,0.724c-1.224-2.004-3.138-3.296-5.292-3.296
			c-2.017,0-3.823,1.133-5.05,2.922c-0.805-0.435-1.691-0.676-2.621-0.676c-2.278,0-4.288,1.444-5.496,3.649
			c-3.131,0.322-5.652,3.375-6.077,7.279c-2.092,1.434-3.513,4.239-3.513,7.466c0,0.733,0.074,1.444,0.212,2.122H198.082z"/>
		<polygon style="fill:#E27866;" points="169.604,975.533 182.517,975.533 184.704,984.738 167.22,984.738 		"/>
		<g>
			<polygon style="fill:#DB8C56;" points="167.22,986.469 175.963,1013.94 184.704,986.469 			"/>
			<polygon style="fill:#E5D3B3;" points="169.985,988.972 175.963,1007.76 181.941,988.972 			"/>
			<path style="fill:#E0925C;" d="M175.963,989.365c1.236,0,2.237,3.042,2.237,6.795c0,3.752-1.001,6.796-2.237,6.796
				c-1.235,0-2.237-3.043-2.237-6.796C173.726,992.407,174.727,989.365,175.963,989.365z"/>
		</g>
		<g>
			<polygon style="fill:#E27866;" points="175.962,887.095 140.471,987.61 175.962,977.437 211.453,987.61 			"/>
			<polygon style="fill:#C66659;" points="175.963,887.096 169.335,979.336 175.962,977.437 182.588,979.336 175.963,887.096 
				175.963,887.096 			"/>
		</g>
		<g>
			<g>
				
					<ellipse transform="matrix(0.9273 -0.3744 0.3744 0.9273 -318.321 168.7469)" style="fill:#D3C1A3;" cx="275.147" cy="903.643" rx="36.025" ry="36.026"/>
				<g>
					<g>
						<path style="fill:#7C6759;" d="M270.255,906.629c0.058-0.046,0.091-0.111,0.091-0.179v-8.64c0-0.095-0.064-0.182-0.164-0.22
							c-0.1-0.039-0.216-0.022-0.297,0.041l-7.294,5.76c-0.058,0.046-0.091,0.111-0.091,0.179v8.642c0,0.096,0.064,0.182,0.164,0.22
							s0.216,0.022,0.297-0.041L270.255,906.629z"/>
						<path style="fill:#7C6759;" d="M279.949,897.81v8.64c0,0.068,0.033,0.133,0.091,0.179l7.293,5.761
							c0.081,0.064,0.197,0.08,0.297,0.041c0.1-0.039,0.164-0.125,0.164-0.22v-8.642c0-0.068-0.033-0.133-0.091-0.179l-7.293-5.76
							c-0.081-0.064-0.197-0.08-0.297-0.041C280.013,897.628,279.949,897.714,279.949,897.81z"/>
					</g>
					<g>
						<polygon style="fill:#E27866;" points="270.183,916.361 275.147,930.368 280.111,916.361 						"/>
						<polygon style="fill:#E5D3B3;" points="271.753,917.638 275.147,927.217 278.542,917.638 						"/>
						<path style="fill:#E27866;" d="M275.147,917.838c0.702,0,1.271,1.551,1.271,3.464c0,1.913-0.569,3.465-1.271,3.465
							c-0.702,0-1.271-1.551-1.271-3.465C273.877,919.389,274.445,917.838,275.147,917.838z"/>
					</g>
					<path style="fill:#E27866;" d="M269.222,897.416c0,7.276,1.095,13.665,2.747,17.303h6.356
						c1.652-3.638,2.748-10.027,2.748-17.303c0-11.321-2.653-20.498-5.926-20.498C271.874,876.918,269.222,886.095,269.222,897.416z
						"/>
					<path style="fill:#7C6759;" d="M270.44,884.966h9.414c-1.082-4.892-2.788-8.047-4.707-8.047
						C273.229,876.918,271.523,880.074,270.44,884.966z"/>
					<polygon style="fill:#7C6759;" points="270.923,911.74 279.502,911.74 280.955,915.719 269.339,915.719 					"/>
					<path style="fill:#7C6759;" d="M275.147,896.677c0.52,0,0.942,4.262,0.942,9.521c0,5.259-0.422,9.522-0.942,9.522
						c-0.52,0-0.942-4.263-0.942-9.522C274.206,900.94,274.627,896.677,275.147,896.677z"/>
					<g>
						<path style="fill:#7C6759;" d="M275.147,887.597c1.638,0,2.966,1.328,2.966,2.966c0,1.638-1.328,2.966-2.966,2.966
							c-1.638,0-2.966-1.328-2.966-2.966C272.181,888.925,273.509,887.597,275.147,887.597z"/>
						<path style="fill:#7C6759;" d="M275.147,888.195c1.308,0,2.368,1.06,2.368,2.368c0,1.308-1.06,2.368-2.368,2.368
							c-1.308,0-2.368-1.06-2.368-2.368C272.779,889.255,273.839,888.195,275.147,888.195z"/>
					</g>
				</g>
			</g>
			
				<ellipse transform="matrix(0.7071 -0.7071 0.7071 0.7071 -592.7671 444.9327)" style="fill:#D3C1A3;" cx="240.698" cy="938" rx="7.532" ry="7.532"/>
			<path style="fill:#D3C1A3;" d="M230.543,946.19c0,3.697-2.997,6.695-6.695,6.695c-3.697,0-6.695-2.997-6.695-6.695
				c0-3.698,2.997-6.695,6.695-6.695C227.546,939.495,230.543,942.493,230.543,946.19z"/>
		</g>
	</g>
</g>
<g id="operation">
	<g>
		<path style="fill:#735F4F;" d="M918.062,724.517v-22.835c0-4.602,2.982-6.902,8.944-6.902c5.879,0,8.819,2.284,8.819,6.853v22.835
			c0,2.061-0.819,3.648-2.458,4.762c-1.638,1.113-3.775,1.671-6.41,1.671C921.027,730.9,918.062,728.772,918.062,724.517z
			 M928.23,724.888v-24.171c0-0.71-0.421-1.064-1.262-1.064c-0.874,0-1.311,0.354-1.311,1.064v24.171
			c0,0.71,0.438,1.064,1.311,1.064C927.81,725.952,928.23,725.598,928.23,724.888z"/>
		<path style="fill:#735F4F;" d="M945.078,717.516v13.063h-7.595v-35.477h8.189c3.249,0,5.661,0.413,7.237,1.237
			c1.574,0.824,2.362,2.506,2.362,5.047v9.846c0,2.326-0.643,3.97-1.93,4.935C952.055,717.132,949.301,717.582,945.078,717.516z
			 M947.676,710.564v-8.51c0-1.254-0.866-1.88-2.598-1.88v12.271C946.81,712.444,947.676,711.818,947.676,710.564z"/>
		<path style="fill:#735F4F;" d="M971.92,730.578h-15.24v-35.477h15.141v4.552h-7.348v9.599h6.63v4.305h-6.63v12.469h7.447V730.578z
			"/>
		<path style="fill:#735F4F;" d="M992.454,730.628h-7.793c-0.841-1.007-1.262-3.86-1.262-8.56v-0.05l0.049-2.128
			c0.049-2.952,0.074-4.461,0.074-4.527c0-1.204-0.809-1.806-2.425-1.806v17.021h-7.793v-35.477h9.624
			c2.194,0,4.103,0.503,5.728,1.509c1.624,1.006,2.436,2.598,2.436,4.775v4.255c0,2.754-1.608,4.619-4.824,5.591
			c3.233,0.759,4.849,2.714,4.849,5.863l-0.124,3.884C990.995,726.652,991.482,729.869,992.454,730.628z M983.499,707.367v-5.854
			c0-1.24-0.799-1.859-2.4-1.859v9.599C982.699,709.253,983.499,708.624,983.499,707.367z"/>
		<path style="fill:#735F4F;" d="M1014.571,730.578h-7.721l-1.315-9.525h-3.458l-1.331,9.525h-7.723l5.828-35.477h9.881
			L1014.571,730.578z M1004.906,716.13l-1.121-10.589l-1.061,10.589H1004.906z"/>
		<path style="fill:#735F4F;" d="M1032.062,699.728h-4.354v30.85h-7.793v-30.85h-4.354v-4.626h16.501V699.728z"/>
		<path style="fill:#735F4F;" d="M1041.216,730.578h-7.793v-35.477h7.793V730.578z"/>
		<path style="fill:#735F4F;" d="M1042.7,724.517v-22.835c0-4.602,2.982-6.902,8.944-6.902c5.879,0,8.819,2.284,8.819,6.853v22.835
			c0,2.061-0.819,3.648-2.458,4.762c-1.638,1.113-3.775,1.671-6.41,1.671C1045.665,730.9,1042.7,728.772,1042.7,724.517z
			 M1052.868,724.888v-24.171c0-0.71-0.421-1.064-1.262-1.064c-0.874,0-1.311,0.354-1.311,1.064v24.171
			c0,0.71,0.438,1.064,1.311,1.064C1052.448,725.952,1052.868,725.598,1052.868,724.888z"/>
		<path style="fill:#735F4F;" d="M1081.937,730.578h-8.016l-5.294-18.901v18.901h-6.507v-35.477h8.857l4.453,16.18v-16.18h6.506
			V730.578z"/>
	</g>
	<g>
		<g>
			<g>
				<path style="fill:#735F4F;" d="M1045.029,506.319l-16.248,0.002c-2.282,0-4.149-1.866-4.149-4.148l-0.002-13.137
					c-0.001-2.282,1.866-4.149,4.148-4.149l16.249-0.002c2.282-0.001,4.149,1.866,4.149,4.148l0.002,13.137
					C1049.177,504.452,1047.311,506.319,1045.029,506.319z"/>
				<path style="fill:#735F4F;" d="M1075.657,525.731l-11.491-11.488c-1.613-1.613-1.614-4.253-0.001-5.867l9.288-9.291
					c1.613-1.613,4.253-1.614,5.867-0.001l11.491,11.488c1.614,1.613,1.614,4.253,0,5.867l-9.288,9.291
					C1079.911,527.344,1077.27,527.344,1075.657,525.731z"/>
				<path style="fill:#735F4F;" d="M1083.588,561.114l-0.002-16.249c0-2.281,1.866-4.148,4.148-4.149l13.137-0.002
					c2.282,0,4.149,1.866,4.149,4.148l0.002,16.248c0,2.282-1.866,4.149-4.148,4.149l-13.137,0.002
					C1085.455,565.263,1083.588,563.396,1083.588,561.114z"/>
				<path style="fill:#735F4F;" d="M1064.177,591.742l11.488-11.491c1.613-1.614,4.253-1.614,5.867-0.001l9.291,9.288
					c1.613,1.613,1.614,4.253,0,5.867l-11.488,11.491c-1.613,1.613-4.254,1.614-5.867,0.001l-9.29-9.288
					C1062.563,595.996,1062.563,593.356,1064.177,591.742z"/>
				<path style="fill:#735F4F;" d="M1028.793,599.673l16.249-0.002c2.282,0,4.148,1.866,4.149,4.148l0.002,13.137
					c0,2.281-1.867,4.148-4.148,4.149l-16.248,0.002c-2.282,0-4.149-1.866-4.15-4.148l-0.001-13.137
					C1024.645,601.541,1026.512,599.673,1028.793,599.673z"/>
				<path style="fill:#735F4F;" d="M998.165,580.261l11.491,11.488c1.614,1.613,1.614,4.253,0.001,5.867l-9.288,9.291
					c-1.613,1.614-4.254,1.614-5.867,0l-11.491-11.487c-1.613-1.613-1.614-4.253,0-5.867l9.288-9.291
					C993.911,578.649,996.552,578.648,998.165,580.261z"/>
				<path style="fill:#735F4F;" d="M990.234,544.878l0.002,16.248c0.001,2.282-1.866,4.149-4.148,4.149l-13.137,0.001
					c-2.282,0.001-4.149-1.866-4.149-4.148l-0.002-16.248c0-2.281,1.866-4.149,4.148-4.149l13.137-0.002
					C988.367,540.73,990.234,542.596,990.234,544.878z"/>
				<path style="fill:#735F4F;" d="M1009.646,514.25l-11.488,11.491c-1.613,1.613-4.253,1.614-5.866,0.001l-9.291-9.288
					c-1.614-1.613-1.614-4.253-0.001-5.867l11.488-11.49c1.613-1.614,4.253-1.614,5.867-0.001l9.29,9.288
					C1011.259,509.996,1011.259,512.637,1009.646,514.25z"/>
			</g>
			<path style="fill:#735F4F;" d="M1036.904,499.119c-29.756,0.004-53.875,24.129-53.87,53.884
				c0.004,29.756,24.128,53.874,53.884,53.87c29.756-0.004,53.874-24.129,53.871-53.884
				C1090.785,523.233,1066.66,499.115,1036.904,499.119z M1036.914,576.725c-13.105,0.002-23.73-10.62-23.732-23.726
				c-0.001-13.105,10.621-23.73,23.726-23.731c13.105-0.002,23.73,10.62,23.732,23.726
				C1060.642,566.098,1050.019,576.723,1036.914,576.725z"/>
			<path style="fill:#E27866;" d="M1036.905,510.41c-23.519,0.003-42.583,19.072-42.58,42.592
				c0.003,23.519,19.072,42.583,42.592,42.58c23.52-0.003,42.584-19.072,42.581-42.591
				C1079.494,529.471,1060.425,510.407,1036.905,510.41z M1036.916,588.256c-19.474,0.003-35.262-15.782-35.264-35.255
				c-0.003-19.473,15.781-35.262,35.255-35.264c19.474-0.002,35.262,15.782,35.264,35.255
				C1072.173,572.465,1056.389,588.253,1036.916,588.256z"/>
		</g>
		<g>
			<g>
				<path style="fill:#735F4F;" d="M958.156,565.607l-10.667-3.843c-1.498-0.54-2.282-2.207-1.742-3.704l3.107-8.624
					c0.539-1.498,2.207-2.282,3.705-1.742l10.667,3.843c1.498,0.54,2.282,2.207,1.742,3.705l-3.107,8.624
					C961.321,565.362,959.654,566.146,958.156,565.607z"/>
				<path style="fill:#735F4F;" d="M973.669,585.596l-4.825-10.26c-0.677-1.441-0.053-3.174,1.388-3.851l8.296-3.901
					c1.441-0.677,3.174-0.053,3.852,1.388l4.825,10.26c0.677,1.441,0.053,3.174-1.388,3.852l-8.295,3.901
					C976.08,587.661,974.346,587.037,973.669,585.596z"/>
				<path style="fill:#735F4F;" d="M970.503,610.7l3.843-10.667c0.54-1.498,2.207-2.282,3.705-1.742l8.624,3.107
					c1.498,0.54,2.282,2.207,1.742,3.705l-3.843,10.667c-0.54,1.498-2.207,2.282-3.705,1.742l-8.624-3.107
					C970.748,613.865,969.964,612.198,970.503,610.7z"/>
				<path style="fill:#735F4F;" d="M950.514,626.213l10.26-4.825c1.441-0.678,3.174-0.053,3.852,1.387l3.901,8.296
					c0.677,1.441,0.053,3.174-1.388,3.851l-10.26,4.825c-1.441,0.678-3.174,0.053-3.852-1.388l-3.901-8.295
					C948.449,628.624,949.073,626.891,950.514,626.213z"/>
				<path style="fill:#735F4F;" d="M925.41,623.048l10.667,3.843c1.498,0.539,2.282,2.207,1.742,3.704l-3.107,8.625
					c-0.54,1.497-2.207,2.282-3.705,1.742l-10.667-3.843c-1.498-0.54-2.282-2.207-1.742-3.704l3.107-8.624
					C922.245,623.292,923.912,622.508,925.41,623.048z"/>
				<path style="fill:#735F4F;" d="M909.897,603.058l4.825,10.26c0.678,1.441,0.053,3.174-1.387,3.851l-8.295,3.901
					c-1.441,0.678-3.174,0.053-3.852-1.388l-4.825-10.26c-0.678-1.441-0.053-3.174,1.388-3.851l8.295-3.901
					C907.486,600.993,909.219,601.617,909.897,603.058z"/>
				<path style="fill:#735F4F;" d="M913.062,577.954l-3.843,10.667c-0.539,1.498-2.207,2.282-3.705,1.742l-8.624-3.107
					c-1.498-0.539-2.282-2.207-1.742-3.705l3.843-10.666c0.539-1.498,2.207-2.282,3.704-1.742l8.624,3.107
					C912.818,574.789,913.602,576.456,913.062,577.954z"/>
				<path style="fill:#735F4F;" d="M933.052,562.441l-10.26,4.825c-1.441,0.677-3.174,0.053-3.851-1.388l-3.901-8.296
					c-0.678-1.441-0.053-3.174,1.388-3.851l10.26-4.825c1.441-0.678,3.174-0.053,3.851,1.388l3.901,8.295
					C935.117,560.03,934.493,561.764,933.052,562.441z"/>
			</g>
			<path style="fill:#735F4F;" d="M954.526,558.957c-19.534-7.038-41.075,3.093-48.113,22.627
				c-7.038,19.534,3.092,41.075,22.627,48.113c19.534,7.038,41.075-3.093,48.113-22.627
				C984.19,587.536,974.06,565.995,954.526,558.957z M936.171,609.905c-8.603-3.1-13.065-12.586-9.965-21.19
				c3.1-8.603,12.587-13.065,21.19-9.965c8.603,3.099,13.065,12.586,9.965,21.19C954.261,608.542,944.774,613.004,936.171,609.905z"
				/>
			<path style="fill:#E27866;" d="M951.855,566.37c-15.44-5.563-32.467,2.445-38.03,17.885c-5.563,15.44,2.445,32.466,17.885,38.029
				c15.44,5.563,32.467-2.445,38.029-17.885C975.303,588.959,967.296,571.933,951.855,566.37z M933.443,617.474
				c-12.784-4.605-19.414-18.703-14.808-31.487c4.606-12.784,18.703-19.414,31.487-14.808c12.784,4.606,19.414,18.703,14.808,31.487
				C960.325,615.451,946.227,622.081,933.443,617.474z"/>
		</g>
	</g>
</g>
<g id="creative">
	<g>
		<g>
			<path style="fill:#E5D3B3;" d="M530.048,707.496h-7.076v-7.026c0-0.577-0.359-0.866-1.076-0.866
				c-0.751,0-1.126,0.289-1.126,0.866v24.616c0,0.577,0.376,0.866,1.126,0.866c0.717,0,1.076-0.289,1.076-0.866v-8.758h7.076v9.005
				c0,1.682-0.825,3.03-2.474,4.044c-1.65,1.014-3.513,1.522-5.591,1.522c-6.004,0-9.005-2.128-9.005-6.383v-22.835
				c0-4.602,3.001-6.902,9.005-6.902c5.376,0,8.065,2.095,8.065,6.284V707.496z"/>
			<path style="fill:#E5D3B3;" d="M551.003,730.628h-7.793c-0.841-1.007-1.262-3.859-1.262-8.56v-0.049l0.049-2.128
				c0.049-2.952,0.074-4.461,0.074-4.527c0-1.204-0.809-1.806-2.424-1.806v17.021h-7.793v-35.477h9.624
				c2.193,0,4.102,0.503,5.727,1.509c1.624,1.006,2.437,2.598,2.437,4.775v4.255c0,2.754-1.608,4.618-4.824,5.591
				c3.232,0.759,4.849,2.714,4.849,5.863l-0.124,3.884C549.543,726.652,550.03,729.869,551.003,730.628z M542.047,707.367v-5.854
				c0-1.24-0.8-1.859-2.4-1.859v9.599C541.247,709.253,542.047,708.624,542.047,707.367z"/>
			<path style="fill:#E5D3B3;" d="M567.306,730.578h-15.24v-35.477h15.141v4.552h-7.348v9.599h6.63v4.305h-6.63v12.469h7.447
				V730.578z"/>
			<path style="fill:#E5D3B3;" d="M589.646,730.578h-7.722l-1.315-9.525h-3.458l-1.331,9.525h-7.722l5.828-35.477h9.881
				L589.646,730.578z M579.981,716.13l-1.121-10.589l-1.061,10.589H579.981z"/>
			<path style="fill:#E5D3B3;" d="M607.138,699.728h-4.354v30.85h-7.794v-30.85h-4.354v-4.626h16.502V699.728z"/>
			<path style="fill:#E5D3B3;" d="M616.291,730.578h-7.793v-35.477h7.793V730.578z"/>
			<path style="fill:#E5D3B3;" d="M637.741,695.102l-4.78,35.477h-11.014l-4.789-35.477h7.589l2.703,24.789l2.678-24.789H637.741z"
				/>
			<path style="fill:#E5D3B3;" d="M646.449,730.578h-7.793v-35.477h7.793V730.578z"/>
			<path style="fill:#E5D3B3;" d="M664.261,699.728h-4.354v30.85h-7.793v-30.85h-4.354v-4.626h16.501V699.728z"/>
			<path style="fill:#E5D3B3;" d="M687.022,695.102l-5.096,14.299l-2.548,7.15v14.027h-7.793v-13.755
				c-0.148-1.254-0.816-3.703-2.004-7.348c-1.023-3.085-2.523-7.875-4.503-14.374h7.437l3.51,12.578l3.983-12.578H687.022z"/>
		</g>
	</g>
	<g>
		<path style="fill:#E5D3B3;" d="M628.545,491.299c-29.371-20.756-55.48-1.436-58.482,0.783
			c-3.002,2.219-19.102,14.839-20.669,36.595c-1.566,21.756,13.924,43.128,13.924,43.128l4.329,8c1.6,2.955,2.467,6.79,3.237,10.042
			c1.301,5.495,1.381,11.913,4.515,16.786c0.427,0.663,0.908,1.241,1.427,1.761h47.433c3.675-4.921,3.494-9.953,4.451-16.026
			c1.112-7.065,4.418-13.469,7.927-19.611c1.045-1.828,9.791-18.668,11.749-23.759C650.346,543.908,657.917,512.056,628.545,491.299
			z"/>
		<path style="fill:#E5D3B3;" d="M579.16,612.224v3.457c0,1.57,1.089,2.843,2.432,2.843h36.816c1.343,0,2.432-1.273,2.432-2.843
			v-3.457H579.16z"/>
		<path style="fill:#E5D3B3;" d="M618.507,626.193c0,0.599-0.407,1.084-0.91,1.084h-35.194c-0.503,0-0.911-0.485-0.911-1.084v-3.864
			c0-0.598,0.408-1.084,0.911-1.084h35.194c0.502,0,0.91,0.486,0.91,1.084V626.193z"/>
		<polygon style="fill:#E5D3B3;" points="592.869,638.896 607.131,638.896 608.387,637.72 616.773,629.866 600,629.866 
			583.227,629.866 591.613,637.72 		"/>
		<path style="fill:#E5D3B3;" d="M600,644.239c3.736,0,6.765-1.416,6.765-3.162h-13.531
			C593.234,642.823,596.264,644.239,600,644.239z"/>
		<path style="fill:#7C6759;" d="M589.319,608.389l-3.549-58.858l3.746,6.562c0.234,0.411,0.615,0.652,1.023,0.62
			c0.402-0.024,0.768-0.302,0.97-0.741l3.969-8.611l4.112,9.116c0.211,0.461,0.599,0.747,1.023,0.751
			c0.434-0.013,0.82-0.275,1.033-0.732l4.159-8.873l2.897,8.122c0.176,0.49,0.546,0.821,0.973,0.871
			c0.427,0.042,0.841-0.191,1.085-0.631l3.412-6.161l-4.003,58.601l2.378,0.006l4.364-63.901c0.046-0.671-0.275-1.292-0.778-1.52
			c-0.508-0.228-1.071,0-1.376,0.551l-4.746,8.57l-2.981-8.348c-0.181-0.507-0.574-0.846-1.017-0.876
			c-0.435-0.027-0.863,0.253-1.086,0.731l-4.283,9.137l-4.123-9.136c-0.21-0.462-0.6-0.75-1.026-0.751
			c-0.449-0.019-0.818,0.281-1.031,0.742l-4.085,8.865l-5.145-9.007c-0.306-0.542-0.866-0.759-1.368-0.534
			c-0.498,0.229-0.817,0.845-0.778,1.507l3.855,63.924L589.319,608.389z"/>
	</g>
</g>
<g id="think">
	<g>
		<path style="fill:#68564A;" d="M148.307,699.728h-4.354v30.85h-7.793v-30.85h-4.354v-4.626h16.501V699.728z"/>
		<path style="fill:#68564A;" d="M167.43,730.578h-7.793v-17.021h-2.177v17.021h-7.793v-35.477h7.793v14.151h2.177v-14.151h7.793
			V730.578z"/>
		<path style="fill:#68564A;" d="M176.708,730.578h-7.793v-35.477h7.793V730.578z"/>
		<path style="fill:#68564A;" d="M198.083,730.578h-8.016l-5.294-18.901v18.901h-6.507v-35.477h8.857l4.453,16.18v-16.18h6.507
			V730.578z"/>
		<path style="fill:#68564A;" d="M219.235,730.578h-8.567l-2.987-13.138v13.138h-7.793v-35.477h7.793v11.853l3.413-11.853h7.225
			l-4.799,16.18L219.235,730.578z"/>
		<path style="fill:#68564A;" d="M228.018,730.578h-7.793v-35.477h7.793V730.578z"/>
		<path style="fill:#68564A;" d="M249.392,730.578h-8.015l-5.294-18.901v18.901h-6.507v-35.477h8.857l4.453,16.18v-16.18h6.506
			V730.578z"/>
		<path style="fill:#68564A;" d="M268.195,730.578h-3.736l-1.014-1.954c-1.716,1.517-3.53,2.276-5.443,2.276
			c-1.864,0-3.493-0.483-4.886-1.448c-1.394-0.965-2.09-2.503-2.09-4.613v-23.156c0-4.602,2.936-6.902,8.807-6.902
			c5.574,0,8.362,2.095,8.362,6.284v6.581h-7.076v-7.174c0-0.577-0.383-0.866-1.15-0.866c-0.767,0-1.15,0.289-1.15,0.866v24.616
			c0,0.577,0.383,0.866,1.15,0.866c0.767,0,1.15-0.289,1.15-0.866v-6.63h-1.583v-5.443h8.659V730.578z"/>
	</g>
	<g>
		<g>
			<ellipse style="fill:#DDC183;" cx="276.832" cy="578.477" rx="16.416" ry="17.158"/>
			<ellipse style="fill:#DDC183;" cx="123.168" cy="578.477" rx="16.416" ry="17.158"/>
		</g>
		<path style="fill:#DDC183;" d="M268.92,617.269v-73.066H129.802v73.066c-6.36-9.204-11.095-19.715-13.756-31.077
			c9.16,39.207,42.984,68.308,83.316,68.308c42.536,0,77.834-32.368,84.593-74.822C281.741,593.543,276.479,606.329,268.92,617.269z
			"/>
		<path style="fill:#735F4F;" d="M130.44,544.202h139.119v73.066c7.559-10.94,12.82-23.726,15.034-37.591
			c0.034-0.214,0.069-0.427,0.102-0.641c0.06-0.394,0.117-0.79,0.172-1.186c0.04-0.291,0.079-0.582,0.117-0.873
			c0.047-0.359,0.093-0.717,0.135-1.077c0.045-0.385,0.086-0.771,0.127-1.157c0.034-0.321,0.069-0.641,0.1-0.963
			c0.057-0.603,0.109-1.208,0.154-1.814c0.02-0.257,0.035-0.516,0.052-0.774c0.03-0.444,0.057-0.889,0.081-1.335
			c0.014-0.268,0.027-0.536,0.039-0.804c0.02-0.463,0.037-0.928,0.051-1.393c0.007-0.237,0.015-0.473,0.021-0.711
			c0.015-0.67,0.024-1.341,0.024-2.015c0-0.026,0.001-0.052,0.001-0.079c0-12.216-2.341-23.859-6.575-34.471
			c0.042,0.13,0.07,0.261,0.07,0.392c0,5.357-35.487,9.701-79.262,9.701c-43.775,0-79.262-4.343-79.262-9.701
			c0-0.13,0.027-0.259,0.069-0.388c-4.232,10.611-6.573,22.253-6.573,34.467c0,0.71,0.01,1.417,0.026,2.122
			c0.005,0.206,0.012,0.412,0.018,0.618c0.014,0.5,0.032,0.999,0.054,1.497c0.011,0.242,0.022,0.484,0.035,0.725
			c0.025,0.483,0.055,0.964,0.088,1.445c0.015,0.225,0.029,0.451,0.046,0.676c0.05,0.665,0.105,1.328,0.169,1.989
			c0.022,0.224,0.048,0.447,0.071,0.67c0.046,0.445,0.093,0.89,0.146,1.333c0.039,0.329,0.081,0.657,0.124,0.986
			c0.042,0.327,0.086,0.653,0.131,0.979c0.052,0.368,0.104,0.736,0.16,1.103c0.039,0.255,0.08,0.509,0.121,0.764
			c0.249,1.548,0.533,3.084,0.856,4.604c0.007,0.032,0.013,0.064,0.02,0.097c0.118,0.553,0.242,1.103,0.37,1.652
			c0.006,0.026,0.012,0.051,0.018,0.076c2.661,11.362,7.396,21.873,13.756,31.077V544.202z"/>
		<path style="fill:#5E5047;" d="M199.966,530.384c0.023-0.058,0.045-0.117,0.068-0.175
			C200.007,530.267,199.985,530.326,199.966,530.384z"/>
		<path style="fill:#5E5047;" d="M199.966,530.21c0.023,0.057,0.044,0.115,0.067,0.172
			C200.015,530.325,199.993,530.267,199.966,530.21z"/>
		<path style="fill:#5E5047;" d="M200.034,530.384c0-0.001,0-0.002,0-0.002c-0.023-0.058-0.044-0.115-0.067-0.172l0-0.001
			C199.989,530.267,200.011,530.326,200.034,530.384z"/>
		<path style="fill:#5E5047;" d="M200.035,530.206c0,0.001-0.001,0.002-0.001,0.003c-0.023,0.058-0.045,0.117-0.068,0.175
			c0,0.001-0.001,0.003-0.001,0.004C199.988,530.328,200.011,530.267,200.035,530.206z"/>
		<path style="fill:#544841;" d="M200,521.076c-42.212,0-76.713,4.039-79.122,9.131c-0.024,0.06-0.047,0.121-0.071,0.181
			c-0.042,0.129-0.069,0.258-0.069,0.388c0,5.357,35.487,9.701,79.262,9.701s79.262-4.343,79.262-9.701
			c0-0.131-0.027-0.262-0.07-0.392c-0.023-0.058-0.045-0.117-0.069-0.176C276.723,525.115,242.219,521.076,200,521.076z"/>
		<ellipse style="fill:#735F4F;" cx="200" cy="530.776" rx="75.443" ry="5.521"/>
		<g id="XMLID_43_">
			<g>
				<g id="XMLID_23_">
					<path style="fill:#735F4F;" d="M190.915,626.01c0,0-6.891,2.374-12.351,3.345c-5.79,1.029-15.696-0.515-18.655-4.117
						c-2.959-3.602-4.632-10.55,0-14.924c0,0-0.386,12.094,6.433,8.62c6.818-3.473,10.549-6.433,14.923-7.977
						c4.375-1.544,14.685-3.038,17.497,0.386C201.723,614.946,202.276,622.76,190.915,626.01z"/>
				</g>
				<g id="XMLID_22_">
					<path style="fill:#735F4F;" d="M208.968,626.01c0,0,6.891,2.374,12.351,3.345c5.789,1.029,15.696-0.515,18.655-4.117
						c2.959-3.602,4.631-10.55,0-14.924c0,0,0.386,12.094-6.433,8.62c-6.819-3.473-10.549-6.433-14.924-7.977
						c-4.374-1.544-14.685-3.038-17.497,0.386C198.162,614.946,197.608,622.76,208.968,626.01z"/>
				</g>
			</g>
		</g>
		<path id="XMLID_28_" style="fill:#735F4F;" d="M199.942,654.499c22.663,0,43.085-8.953,57.518-23.28
			c-1.829-0.65-3.609-1.101-4.895-1.024c-4.048,0.243-9.895,8.214-16.641,10.281c-6.746,2.066-25.636,3.207-28.785,1.426
			c-3.148-1.781-7.196-3.732-7.196-3.732s-4.048,1.951-7.196,3.732c-3.148,1.781-22.038,0.64-28.785-1.426
			c-6.746-2.067-12.593-10.038-16.641-10.281c-1.286-0.077-3.066,0.375-4.895,1.023C156.857,645.546,177.28,654.499,199.942,654.499
			z"/>
		<path id="XMLID_10_" style="fill:#545352;" d="M118.403,558.279v7.776c0,0,1.062,0.299,2.797,2.494
			c1.737,2.193,0.483,5.185,3.184,18.845c2.701,13.66,11.867,23.132,32.356,23.132c12.536,0,22.621-4.376,29.461-15.561
			c3.241-5.3,5.168-11.444,6.686-17.473c0.39-1.548,0.744-3.096,1.021-4.618c3.287-0.88,6.092-1.359,6.092-1.359
			s2.805,0.479,6.092,1.359c0.277,1.522,0.632,3.071,1.021,4.618c1.518,6.029,3.445,12.174,6.687,17.473
			c6.84,11.185,16.925,15.561,29.46,15.561c20.491,0,29.655-9.472,32.356-23.132c2.701-13.66,1.447-16.651,3.183-18.845
			c1.737-2.194,2.798-2.494,2.798-2.494v-7.776c0,0-0.385-1.296-3.762-1.995c-20.644-4.267-41.625-5.264-62.37-1.041
			c-4.177,0.851-6.753,2.624-8.237,4.989c-2.784,0.982-5.86,1.943-7.229,1.943c-1.368,0-4.444-0.961-7.228-1.943
			c-1.483-2.365-4.059-4.138-8.236-4.989c-20.745-4.223-41.727-3.226-62.37,1.041C118.789,556.983,118.403,558.279,118.403,558.279z
			 M210.445,574.239c-0.886-3.965-1.37-8.254,1.105-11.736c0.349-0.492,0.741-0.925,1.153-1.33c2.395-2.359,5.746-3.376,8.956-4.173
			c2.897-0.72,5.85-1.167,8.82-1.43c3.17-0.281,6.356-0.401,9.538-0.373c5.87,0.05,9.059,0.068,14.886,0.748
			c4.796,0.559,13.18,0.903,16.65,4.942c2.928,3.407,2.487,7.857,2.219,12.024c-0.297,4.617-0.971,9.207-1.942,13.727
			c-0.58,2.696-1.117,5.717-2.296,8.326c-0.439,0.97-0.968,1.883-1.62,2.701c-3.276,4.104-6.752,6.778-11.81,8.179
			c-5.092,1.411-10.493,1.39-15.727,1.181c-22.318-0.89-26.41-18.183-29.661-31.622C210.622,575.019,210.532,574.63,210.445,574.239
			z M128.447,560.886c3.47-4.038,11.854-4.383,16.65-4.942c5.826-0.68,9.016-0.698,14.886-0.748
			c3.182-0.028,6.368,0.093,9.538,0.373c2.97,0.263,5.924,0.71,8.821,1.43c3.21,0.797,6.56,1.814,8.955,4.172
			c0.413,0.406,0.803,0.84,1.153,1.331c2.475,3.482,1.991,7.772,1.105,11.736c-0.087,0.391-0.177,0.78-0.27,1.164
			c-3.251,13.438-7.343,30.732-29.66,31.622c-5.235,0.21-10.635,0.231-15.728-1.181c-5.059-1.402-8.533-4.076-11.81-8.179
			c-0.653-0.818-1.18-1.731-1.62-2.701c-1.18-2.609-1.717-5.631-2.297-8.326c-0.97-4.519-1.646-9.109-1.942-13.727
			C125.961,568.742,125.519,564.293,128.447,560.886z"/>
		<g>
			<path style="fill:#E5D3B3;" d="M199.424,478.73c0.21,0.378,0.404,0.764,0.568,1.162
				C199.828,479.494,199.632,479.109,199.424,478.73z"/>
			<path style="fill:#E5D3B3;" d="M168.959,480.321c0.693,0.245,1.36,0.531,1.995,0.861
				C170.319,480.853,169.649,480.571,168.959,480.321z"/>
			<path style="fill:#E5D3B3;" d="M198.596,477.427c0.254,0.347,0.482,0.708,0.697,1.076
				C199.079,478.134,198.85,477.773,198.596,477.427z"/>
			<path style="fill:#E5D3B3;" d="M152.516,524.851c-4.101-7.277-15.037-5.964-20.984-4.614c1.226-0.805,2.59-1.462,4.06-1.932
				c-5.631,1.803-9.756,6.301-10.186,11.643c2.931-1.424,13.3-2.668,28.106-3.518C153.161,525.919,152.823,525.396,152.516,524.851z
				"/>
			<path style="fill:#E5D3B3;" d="M200.7,478.485c0.217-0.371,0.447-0.734,0.704-1.083
				C201.147,477.751,200.916,478.114,200.7,478.485z"/>
			<path style="fill:#E5D3B3;" d="M148.008,493.795c0.142,1.03,0.415,2.025,0.817,2.97h0
				C148.423,495.82,148.15,494.825,148.008,493.795z"/>
			<path style="fill:#E5D3B3;" d="M199.992,479.892c0.165-0.4,0.361-0.787,0.571-1.167
				C200.354,479.105,200.157,479.492,199.992,479.892z"/>
			<path style="fill:#E5D3B3;" d="M157.234,522.899c0.706,1.252,1.503,2.306,2.347,3.216c11.316-0.527,24.673-0.838,39.015-0.857
				v-47.833c-2.585-3.535-7.161-5.904-12.364-5.903c-0.101,0-0.198,0.012-0.299,0.013c-0.101-0.002-0.2-0.013-0.301-0.013
				c-7.036,0.001-12.939,4.102-14.671,9.662c0.293-0.942,0.746-1.822,1.264-2.667c1.701,2.918,4.204,5.759,7.503,6.061
				c1.512,0.138,2.61,1.302,2.446,2.599c-0.151,1.21-1.346,2.109-2.737,2.109c-0.097,0-0.197-0.004-0.297-0.013
				c-6.277-0.574-10.167-5.478-12.357-9.566c-1.182-0.256-2.411-0.414-3.688-0.414c-8.395,0.001-15.199,5.83-15.201,13.02
				c0.001-0.183,0.054-0.353,0.063-0.535c1.362,1.871,2.459,4.041,3.198,6.601c1.157,4.011,3.522,6.163,7.23,6.577
				c6.185,0.718,13.812-3.498,14.733-4.938c0.527-1.225,2.088-1.817,3.523-1.364c1.428,0.451,2.142,1.845,1.615,3.068
				c-1.369,3.176-10.38,8.03-18.486,8.031c-0.312,0-0.622-0.007-0.931-0.022c-6.594-0.315-11.224-3.944-13.036-10.221
				c-0.278-0.964-0.626-1.835-1.005-2.665c0.713-0.088,1.422-0.187,2.163-0.187c-8.396,0.001-15.201,5.832-15.2,13.024
				c0.001,3.31,1.455,6.323,3.831,8.62c-0.938-0.907-1.682-1.952-2.3-3.057C141.85,513.877,152.554,514.595,157.234,522.899z"/>
			<path style="fill:#E5D3B3;" d="M166.783,479.706c0.729,0.158,1.439,0.359,2.125,0.599
				C168.224,480.06,167.513,479.865,166.783,479.706z"/>
			<path style="fill:#E5D3B3;" d="M224.908,525.564c0.185-0.777,0.474-1.569,0.911-2.372c2.456-4.527,7.742-7.607,15.715-9.159
				c8.82-1.717,17.286-1.12,25.513,0.606c-0.653,1.34-1.536,2.579-2.644,3.65c0.769,0.246,1.507,0.546,2.214,0.888
				c-7.826-1.716-15.793-2.35-23.926-0.765c-6.305,1.226-10.383,3.471-12.123,6.673c-0.116,0.214-0.213,0.425-0.296,0.634
				c23.277,0.747,40.415,2.329,44.323,4.228c-0.425-5.349-4.554-9.854-10.192-11.658c2.376-2.298,3.831-5.312,3.83-8.623
				c-0.001-7.192-6.809-13.022-15.205-13.021l0,0c0.875,0,1.721,0.099,2.555,0.22c-0.969,0.948-2.038,1.86-3.295,2.678
				c-4.022,2.62-8.909,3.938-14.579,3.938c-2.042,0-4.186-0.171-6.433-0.514c-1.423-0.217-2.375-1.383-2.119-2.603
				c0.25-1.221,1.607-2.043,3.039-1.815c6.97,1.06,12.661,0.196,16.919-2.577c1.104-0.719,2.016-1.543,2.845-2.399
				c-0.131,1.101-0.367,2.175-0.794,3.181l0,0c0.59-1.39,0.929-2.884,0.929-4.449c-0.001-7.192-6.809-13.022-15.205-13.021
				c-2.193,0-4.268,0.41-6.148,1.129c0.592-0.224,1.204-0.417,1.832-0.578c-0.018,0.143,0.012,0.286-0.01,0.43
				c-0.68,4.438-3.366,8.125-7.982,10.958c-0.46,0.283-0.993,0.419-1.525,0.419c-0.814,0-1.617-0.326-2.129-0.938
				c-0.844-1.008-0.573-2.411,0.603-3.132c3.439-2.107,5.347-4.689,5.838-7.891c0.088-0.575,0.023-1.16,0.022-1.741
				c0.52,0.753,0.975,1.544,1.322,2.379c-2.049-5.116-7.693-8.8-14.361-8.799c-0.102,0-0.2,0.011-0.302,0.013
				c-0.1-0.002-0.198-0.013-0.299-0.013c-5.191,0.001-9.759,2.359-12.346,5.882v47.857
				C209.628,525.269,217.528,525.376,224.908,525.564z"/>
			<path style="fill:#E5D3B3;" d="M146.962,496.657L146.962,496.657c0.057,0,0.11,0.009,0.167,0.01
				C147.072,496.666,147.018,496.657,146.962,496.657z"/>
			<path style="fill:#E5D3B3;" d="M224.908,525.564c-7.379-0.189-15.279-0.296-23.503-0.307v11.037
				c10.103-0.014,19.72-0.172,28.478-0.448C226.432,533.643,223.888,529.849,224.908,525.564z"/>
			<path style="fill:#E5D3B3;" d="M274.595,529.947c-3.909-1.9-21.046-3.481-44.323-4.228c-1.324,3.315,1.401,5.859,3.337,6.882
				c1.843,0.973,4.54,1.525,6.069-0.132c0.901-0.973,2.548-1.138,3.68-0.364c1.136,0.769,1.326,2.183,0.425,3.152
				c-0.005,0.006-0.012,0.01-0.017,0.016c16.251-0.849,27.716-2.156,30.826-3.665c0.016-0.25,0.045-0.498,0.045-0.751
				C274.637,530.55,274.619,530.248,274.595,529.947z"/>
			<path style="fill:#E5D3B3;" d="M198.595,525.258c-14.341,0.019-27.699,0.331-39.015,0.857c4.09,4.408,9.372,5.121,11.743,5.195
				c3.767,0.164,6.571-1.005,7.32-2.12c0.721-1.074,2.326-1.443,3.58-0.822c1.254,0.62,1.684,1.992,0.96,3.066
				c-1.814,2.69-6.202,4.373-11.309,4.374c-0.246,0-0.494-0.004-0.742-0.013c-7.279-0.228-13.73-3.696-17.621-9.365
				c-14.806,0.849-25.175,2.094-28.106,3.518c-0.025,0.306-0.043,0.614-0.043,0.925c0,0.248,0.028,0.49,0.044,0.734
				c5.402,2.622,36.011,4.639,73.189,4.689V525.258z"/>
			<path style="fill:#E5D3B3;" d="M200.001,535.915c0.054,0.13,0.119,0.254,0.178,0.382c0.003,0,0.006,0,0.01,0
				C200.129,536.168,200.055,536.046,200.001,535.915z"/>
			<path style="fill:#E5D3B3;" d="M199.814,536.297c0.003,0,0.007,0,0.01,0c0.059-0.128,0.124-0.252,0.177-0.382
				C199.947,536.046,199.873,536.168,199.814,536.297z"/>
			<path style="fill:#735F4F;" d="M242.691,518.412c8.133-1.585,16.1-0.951,23.926,0.765c-0.707-0.341-1.445-0.642-2.214-0.888
				c1.108-1.071,1.991-2.31,2.644-3.65c-8.227-1.727-16.693-2.323-25.513-0.606c-7.973,1.553-13.259,4.633-15.715,9.159
				c-0.437,0.803-0.726,1.595-0.911,2.372c1.821,0.047,3.61,0.098,5.364,0.154c0.083-0.208,0.18-0.419,0.296-0.634
				C232.307,521.883,236.386,519.638,242.691,518.412z"/>
			<path style="fill:#735F4F;" d="M229.882,535.846c4.924-0.156,9.569-0.349,13.884-0.574c0.005-0.006,0.012-0.01,0.017-0.016
				c0.9-0.969,0.711-2.383-0.425-3.152c-1.131-0.774-2.779-0.609-3.68,0.364c-1.53,1.657-4.227,1.105-6.069,0.132
				c-1.936-1.023-4.662-3.567-3.337-6.882c-1.754-0.056-3.543-0.108-5.364-0.154C223.888,529.849,226.432,533.643,229.882,535.846z"
				/>
			<path style="fill:#735F4F;" d="M253.028,496.645L253.028,496.645c-0.632,0-1.251,0.043-1.863,0.108l0,0
				C251.777,496.689,252.396,496.646,253.028,496.645z"/>
			<path style="fill:#735F4F;" d="M251.959,493.573c-0.829,0.856-1.74,1.68-2.845,2.399c-4.257,2.773-9.948,3.637-16.919,2.577
				c-1.433-0.228-2.789,0.594-3.039,1.815c-0.256,1.221,0.696,2.387,2.119,2.603c2.247,0.344,4.391,0.515,6.433,0.514
				c5.67-0.001,10.557-1.319,14.579-3.938c1.257-0.818,2.326-1.73,3.295-2.678c-0.835-0.121-1.68-0.22-2.555-0.22
				c-0.632,0-1.251,0.043-1.863,0.108l0,0l0,0C251.592,495.748,251.829,494.674,251.959,493.573z"/>
			<path style="fill:#735F4F;" d="M230.74,480.413c-0.593,0.224-1.166,0.479-1.715,0.765c-0.091-0.292-0.196-0.578-0.313-0.86
				c0.114,0.283,0.222,0.569,0.313,0.86C229.574,480.893,230.149,480.639,230.74,480.413z"/>
			<path style="fill:#735F4F;" d="M227.368,479.68c-0.491,3.202-2.399,5.785-5.838,7.891c-1.177,0.721-1.448,2.124-0.603,3.132
				c0.512,0.611,1.316,0.938,2.129,0.938c0.532,0,1.064-0.136,1.525-0.419c4.616-2.832,7.302-6.519,7.982-10.958
				c0.022-0.144-0.008-0.287,0.01-0.43c-0.628,0.161-1.24,0.354-1.832,0.578c-0.591,0.226-1.166,0.48-1.715,0.766
				c-0.091-0.292-0.2-0.577-0.313-0.86c-0.347-0.835-0.802-1.626-1.322-2.379C227.391,478.52,227.456,479.105,227.368,479.68z"/>
			<polygon style="fill:#735F4F;" points="135.592,518.302 135.594,518.304 135.593,518.304 135.594,518.304 			"/>
			<path style="fill:#735F4F;" d="M152.516,524.851c0.308,0.546,0.645,1.068,0.996,1.579c1.949-0.112,3.973-0.217,6.069-0.314
				c-0.844-0.909-1.641-1.964-2.347-3.216c-4.68-8.304-15.384-9.023-23.942-7.654c0.618,1.105,1.362,2.149,2.3,3.057
				c0.001,0.001,0.001,0.002,0.002,0.002l-0.002,0c-1.47,0.47-2.834,1.128-4.06,1.932
				C137.478,518.887,148.415,517.573,152.516,524.851z"/>
			<path style="fill:#735F4F;" d="M171.132,535.794c0.248,0.009,0.496,0.013,0.742,0.013c5.107-0.001,9.495-1.684,11.309-4.374
				c0.724-1.074,0.294-2.446-0.96-3.066c-1.254-0.62-2.858-0.252-3.58,0.822c-0.749,1.116-3.554,2.284-7.32,2.12
				c-2.371-0.074-7.653-0.787-11.743-5.195c-2.096,0.098-4.12,0.203-6.069,0.314C157.402,532.098,163.853,535.566,171.132,535.794z"
				/>
			<polygon style="fill:#735F4F;" points="146.962,496.657 146.961,496.657 146.962,496.657 			"/>
			<path style="fill:#735F4F;" d="M147.895,492.312c0,0.001,0,0.003,0,0.004c0,0.502,0.047,0.993,0.113,1.479
				c-0.067-0.486-0.113-0.977-0.113-1.478C147.894,492.315,147.895,492.314,147.895,492.312z"/>
			<path style="fill:#735F4F;" d="M148.825,496.765c-0.557-0.059-1.123-0.091-1.696-0.098
				C147.702,496.674,148.268,496.706,148.825,496.765L148.825,496.765z"/>
			<path style="fill:#735F4F;" d="M145.803,499.51c1.812,6.277,6.442,9.906,13.036,10.221c0.309,0.015,0.619,0.022,0.931,0.022
				c8.106-0.001,17.118-4.855,18.486-8.031c0.527-1.223-0.187-2.617-1.615-3.068c-1.436-0.453-2.996,0.138-3.523,1.364
				c-0.921,1.44-8.548,5.656-14.733,4.938c-3.708-0.414-6.072-2.566-7.23-6.577c-0.739-2.559-1.836-4.73-3.198-6.601
				c-0.009,0.182-0.062,0.352-0.063,0.535c0,0.001,0,0.003,0,0.004c0,0.502,0.047,0.992,0.113,1.478
				c0.142,1.03,0.415,2.025,0.817,2.97h0v0c-0.557-0.059-1.123-0.091-1.696-0.098c-0.056-0.001-0.11-0.01-0.167-0.01h-0.001
				c-0.741,0-1.45,0.099-2.163,0.187C145.177,497.674,145.525,498.546,145.803,499.51z"/>
			<path style="fill:#735F4F;" d="M168.908,480.305c0.017,0.006,0.035,0.01,0.051,0.016
				C168.942,480.315,168.925,480.311,168.908,480.305z"/>
			<polygon style="fill:#735F4F;" points="166.783,479.706 166.783,479.706 166.783,479.706 			"/>
			<polygon style="fill:#735F4F;" points="170.96,481.184 170.96,481.185 170.954,481.182 170.96,481.185 			"/>
			<path style="fill:#735F4F;" d="M179.14,489.272c0.1,0.009,0.199,0.013,0.297,0.013c1.392,0,2.587-0.899,2.737-2.109
				c0.164-1.298-0.934-2.461-2.446-2.599c-3.299-0.302-5.802-3.143-7.503-6.061c-0.518,0.845-0.971,1.725-1.264,2.667
				c0,0,0,0.001,0,0.001c-0.002-0.001-0.004-0.001-0.006-0.002c-0.635-0.33-1.302-0.616-1.995-0.861
				c-0.017-0.006-0.035-0.01-0.051-0.016c-0.686-0.24-1.395-0.441-2.125-0.599l0,0C168.973,483.794,172.863,488.698,179.14,489.272z
				"/>
			<path style="fill:#C4B59D;" d="M199.293,478.502c0.044,0.076,0.088,0.151,0.13,0.228
				C199.381,478.654,199.338,478.578,199.293,478.502z"/>
			<path style="fill:#C4B59D;" d="M200.563,478.724c0.044-0.08,0.091-0.16,0.137-0.239
				C200.654,478.565,200.608,478.644,200.563,478.724z"/>
			<polygon style="fill:#C4B59D;" points="201.404,477.401 201.404,477.402 201.404,477.401 			"/>
			<polygon style="fill:#C4B59D;" points="198.595,477.425 198.595,477.425 198.596,477.426 			"/>
			<path style="fill:#C4B59D;" d="M200,525.255c0.471,0,0.935,0.002,1.404,0.003v-47.857l-0.001,0.001
				c-0.256,0.349-0.487,0.713-0.704,1.083c-0.046,0.079-0.092,0.159-0.137,0.239c-0.211,0.38-0.406,0.767-0.571,1.167
				c-0.164-0.398-0.359-0.784-0.568-1.162c-0.042-0.077-0.086-0.152-0.13-0.228c-0.215-0.368-0.443-0.729-0.697-1.076
				c0,0-0.001-0.001-0.001-0.002v47.833C199.064,525.257,199.529,525.255,200,525.255z"/>
			<path style="fill:#C4B59D;" d="M200,525.255c-0.471,0-0.936,0.002-1.405,0.003v11.037c0.407,0,0.81,0.002,1.218,0.002
				c0.059-0.129,0.133-0.251,0.187-0.382c0.054,0.131,0.128,0.253,0.187,0.382c0.408,0,0.81-0.002,1.217-0.002v-11.037
				C200.936,525.257,200.471,525.255,200,525.255z"/>
		</g>
	</g>
</g>
<g id="target">
	<g>
		<g>
			<path style="fill:#E5D3B3;" d="M960.441,299.728h-4.354v30.85h-7.793v-30.85h-4.354v-4.626h16.501V299.728z"/>
			<path style="fill:#E5D3B3;" d="M982.979,330.578h-7.723l-1.315-9.525h-3.458l-1.331,9.525h-7.721l5.828-35.477h9.88
				L982.979,330.578z M973.314,316.13l-1.121-10.589l-1.061,10.589H973.314z"/>
			<path style="fill:#E5D3B3;" d="M1003.464,330.628h-7.793c-0.841-1.006-1.262-3.859-1.262-8.56v-0.049l0.049-2.128
				c0.049-2.952,0.074-4.461,0.074-4.527c0-1.204-0.809-1.806-2.424-1.806v17.021h-7.793v-35.477h9.624
				c2.193,0,4.102,0.503,5.727,1.509c1.625,1.007,2.438,2.598,2.438,4.775v4.255c0,2.755-1.608,4.618-4.824,5.591
				c3.232,0.759,4.849,2.713,4.849,5.863l-0.124,3.884C1002.004,326.653,1002.49,329.869,1003.464,330.628z M994.508,307.367v-5.854
				c0-1.24-0.801-1.86-2.4-1.86v9.599C993.707,309.253,994.508,308.624,994.508,307.367z"/>
			<path style="fill:#E5D3B3;" d="M1021.622,330.578h-3.736l-1.014-1.954c-1.716,1.517-3.53,2.276-5.443,2.276
				c-1.865,0-3.494-0.482-4.887-1.447c-1.393-0.965-2.09-2.503-2.09-4.614v-23.156c0-4.602,2.935-6.902,8.807-6.902
				c5.574,0,8.362,2.095,8.362,6.284v6.581h-7.076v-7.174c0-0.577-0.384-0.866-1.151-0.866c-0.767,0-1.15,0.289-1.15,0.866v24.616
				c0,0.577,0.383,0.866,1.15,0.866c0.767,0,1.151-0.288,1.151-0.866v-6.63h-1.583v-5.443h8.659V330.578z"/>
			<path style="fill:#E5D3B3;" d="M1038.519,330.578h-15.24v-35.477h15.141v4.552h-7.348v9.599h6.63v4.305h-6.63v12.469h7.447
				V330.578z"/>
			<path style="fill:#E5D3B3;" d="M1056.06,299.728h-4.354v30.85h-7.793v-30.85h-4.354v-4.626h16.501V299.728z"/>
		</g>
	</g>
	<g>
		<path style="fill:#E27866;" d="M1103.416,163.009c0,33.427-27.097,60.525-60.524,60.525c-33.428,0-60.526-27.098-60.526-60.525
			s27.098-60.525,60.526-60.525C1076.319,102.484,1103.416,129.582,1103.416,163.009z"/>
		<path style="fill:#C66659;" d="M1099.327,163.009c0,33.427-27.099,60.525-60.524,60.525c-33.428,0-60.526-27.098-60.526-60.525
			s27.098-60.525,60.526-60.525C1072.229,102.484,1099.327,129.582,1099.327,163.009z"/>
		<path style="fill:#E5D3B3;" d="M1085.691,163.009c0,25.896-20.994,46.89-46.889,46.89c-25.897,0-46.889-20.994-46.889-46.89
			c0-25.896,20.992-46.89,46.889-46.89C1064.698,116.119,1085.691,137.113,1085.691,163.009z"/>
		<path style="fill:#C66659;" d="M1072.634,163.009c0,18.683-15.147,33.83-33.831,33.83c-18.686,0-33.831-15.147-33.831-33.83
			c0-18.684,15.146-33.831,33.831-33.831C1057.487,129.178,1072.634,144.325,1072.634,163.009z"/>
		<path style="fill:#E5D3B3;" d="M1060.784,163.009c0,12.141-9.842,21.982-21.982,21.982c-12.141,0-21.982-9.841-21.982-21.982
			c0-12.14,9.842-21.982,21.982-21.982C1050.942,141.027,1060.784,150.868,1060.784,163.009z"/>
		<path style="fill:#C66659;" d="M1049.521,163.009c0,5.92-4.8,10.719-10.719,10.719c-5.919,0-10.718-4.799-10.718-10.719
			c0-5.92,4.799-10.719,10.718-10.719C1044.721,152.29,1049.521,157.089,1049.521,163.009z"/>
		<path style="fill:#C66659;" d="M1041.809,161.604c-0.776-1.823-2.882-2.672-4.706-1.896c-1.823,0.776-2.672,2.883-1.896,4.706
			c0.776,1.823,2.884,2.672,4.706,1.896C1041.736,165.534,1042.585,163.427,1041.809,161.604z"/>
		<g>
			<g>
				<g>
					<g>
						<g>
							<polygon style="fill:#E5D3B3;" points="940.756,160.664 947.861,160.664 939.688,150.671 932.582,150.671 							"/>
							<polygon style="fill:#E5D3B3;" points="948.452,160.664 955.558,160.664 947.384,150.671 940.278,150.671 							"/>
							<polygon style="fill:#E5D3B3;" points="956.148,160.664 963.254,160.664 955.081,150.671 947.975,150.671 							"/>
						</g>
						<g>
							<polygon style="fill:#E5D3B3;" points="940.756,165.162 947.861,165.162 939.688,175.154 932.582,175.154 							"/>
							<polygon style="fill:#E5D3B3;" points="948.452,165.162 955.558,165.162 947.384,175.154 940.278,175.154 							"/>
							<polygon style="fill:#E5D3B3;" points="956.148,165.162 963.254,165.162 955.081,175.154 947.975,175.154 							"/>
						</g>
					</g>
				</g>
				<g>
					<rect x="936.136" y="159.712" style="fill:#E27866;" width="102.666" height="6.4"/>
					<path style="fill:#E27866;" d="M1041.961,162.913c0,1.768-1.432,3.201-3.201,3.201c-1.768,0-3.201-1.433-3.201-3.201
						c0-1.768,1.433-3.201,3.201-3.201C1040.528,159.711,1041.961,161.145,1041.961,162.913z"/>
				</g>
				<g>
					<path style="fill:#E27866;" d="M933.061,156.529c0.25,0,0.452,0.396,0.452,0.884v10.999c0,0.488-0.202,0.884-0.452,0.884
						h-6.039c-0.249,0-0.453-0.396-0.453-0.884v-10.999c0-0.488,0.203-0.884,0.453-0.884H933.061z"/>
					<path style="fill:#E27866;" d="M937.804,164.099v-2.372c0-2.884-2.337-5.222-5.222-5.222v12.815
						C935.467,169.32,937.804,166.981,937.804,164.099z"/>
					<path style="fill:#E5D3B3;" d="M911.072,149.043c-8.002,0-14.489,6.21-14.489,13.869c0,7.66,6.487,13.871,14.489,13.871
						c2.97,0,5.73-0.857,8.029-2.324v0.026l8.632-4.879v-13.388l-8.632-4.878v0.025
						C916.802,149.899,914.042,149.043,911.072,149.043z"/>
					<path style="fill:#735F4F;" d="M927.726,166.376l-15.288,1.16l1.705-1.218c0.107-0.076,0.169-0.2,0.161-0.333
						c-0.006-0.13-0.078-0.25-0.192-0.315l-2.236-1.289l2.368-1.337c0.12-0.069,0.194-0.195,0.195-0.332
						c-0.003-0.141-0.071-0.267-0.19-0.336l-2.304-1.35l2.11-0.942c0.127-0.057,0.213-0.178,0.226-0.316
						c0.011-0.139-0.049-0.273-0.164-0.353l-1.6-1.108l15.22,1.294l0.002-0.773l-16.597-1.411c-0.174-0.015-0.336,0.089-0.395,0.253
						c-0.059,0.165,0,0.348,0.143,0.447l2.225,1.541l-2.169,0.97c-0.132,0.059-0.22,0.187-0.228,0.331
						c-0.007,0.141,0.065,0.28,0.19,0.353l2.373,1.391l-2.373,1.341c-0.12,0.068-0.195,0.195-0.195,0.333
						c-0.005,0.146,0.073,0.266,0.193,0.335l2.302,1.326l-2.34,1.673c-0.141,0.099-0.197,0.281-0.139,0.444
						c0.059,0.162,0.219,0.266,0.392,0.253l16.603-1.26L927.726,166.376z"/>
				</g>
			</g>
			<g>
				<g>
					<g>
						<g>
							<polygon style="fill:#E5D3B3;" points="949.466,122.283 956.004,125.066 952.398,112.67 945.86,109.887 							"/>
							<polygon style="fill:#E5D3B3;" points="956.547,125.297 963.085,128.08 959.479,115.684 952.941,112.901 							"/>
							<polygon style="fill:#E5D3B3;" points="963.629,128.312 970.167,131.095 966.561,118.699 960.022,115.916 							"/>
						</g>
						<g>
							<polygon style="fill:#E5D3B3;" points="947.704,126.422 954.242,129.205 942.809,135.198 936.27,132.415 							"/>
							<polygon style="fill:#E5D3B3;" points="954.786,129.436 961.324,132.219 949.889,138.212 943.352,135.429 							"/>
							<polygon style="fill:#E5D3B3;" points="961.867,132.451 968.405,135.234 956.971,141.226 950.433,138.443 							"/>
						</g>
					</g>
				</g>
				<g>
					
						<rect x="988.367" y="91.314" transform="matrix(0.3917 -0.9201 0.9201 0.3917 471.9545 999.1262)" style="fill:#E27866;" width="6.399" height="102.666"/>
					<path style="fill:#E27866;" d="M1041.705,163.99c-0.692,1.627-2.572,2.384-4.199,1.692c-1.626-0.692-2.383-2.572-1.691-4.199
						c0.692-1.626,2.573-2.384,4.199-1.692C1041.641,160.484,1042.397,162.364,1041.705,163.99z"/>
				</g>
				<g>
					<path style="fill:#E27866;" d="M944.006,115.465c0.23,0.098,0.261,0.542,0.07,0.99l-4.308,10.121
						c-0.191,0.449-0.532,0.734-0.762,0.636l-5.557-2.365c-0.229-0.097-0.262-0.542-0.07-0.99l4.308-10.121
						c0.191-0.449,0.533-0.733,0.762-0.636L944.006,115.465z"/>
					<path style="fill:#E27866;" d="M945.405,124.287l0.929-2.182c1.13-2.654-0.106-5.72-2.76-6.85l-5.019,11.791
						C941.21,128.176,944.276,126.939,945.405,124.287z"/>
					<path style="fill:#E5D3B3;" d="M926.706,99.964c-7.363-3.134-15.764,0.04-18.763,7.086c-3,7.048,0.536,15.303,7.899,18.438
						c2.733,1.163,5.608,1.456,8.298,1.007l-0.01,0.024l9.853-1.108l5.244-12.318l-6.032-7.869l-0.01,0.023
						C931.643,102.997,929.439,101.127,926.706,99.964z"/>
					<path style="fill:#735F4F;" d="M935.24,122.435l-14.521-4.92l2.046-0.453c0.128-0.028,0.234-0.118,0.279-0.243
						c0.045-0.122,0.026-0.26-0.054-0.365l-1.553-2.061l2.703-0.303c0.137-0.016,0.255-0.103,0.31-0.23
						c0.052-0.131,0.039-0.273-0.044-0.383l-1.591-2.145l2.31-0.041c0.139-0.003,0.266-0.08,0.332-0.202
						c0.064-0.123,0.062-0.271-0.013-0.389l-1.038-1.646l13.498,7.152l0.304-0.71l-14.718-7.798
						c-0.154-0.082-0.344-0.049-0.462,0.078c-0.119,0.129-0.136,0.32-0.044,0.467l1.444,2.29l-2.375,0.043
						c-0.144,0.003-0.275,0.086-0.339,0.215c-0.062,0.127-0.049,0.284,0.036,0.399l1.638,2.209l-2.709,0.304
						c-0.137,0.016-0.256,0.103-0.31,0.23c-0.061,0.132-0.037,0.273,0.046,0.384l1.599,2.122l-2.808,0.623
						c-0.168,0.036-0.292,0.182-0.302,0.355c-0.009,0.172,0.098,0.33,0.261,0.386l15.771,5.344L935.24,122.435z"/>
				</g>
			</g>
			<g>
				<g>
					<g>
						<g>
							<polygon style="fill:#E5D3B3;" points="949.466,203.735 956.004,200.952 952.398,213.348 945.86,216.131 							"/>
							<polygon style="fill:#E5D3B3;" points="956.547,200.721 963.085,197.938 959.479,210.334 952.941,213.117 							"/>
							<polygon style="fill:#E5D3B3;" points="963.629,197.706 970.167,194.923 966.561,207.319 960.022,210.102 							"/>
						</g>
						<g>
							<polygon style="fill:#E5D3B3;" points="947.704,199.596 954.242,196.813 942.809,190.82 936.27,193.603 							"/>
							<polygon style="fill:#E5D3B3;" points="954.786,196.582 961.324,193.799 949.889,187.806 943.352,190.589 							"/>
							<polygon style="fill:#E5D3B3;" points="961.867,193.567 968.405,190.784 956.971,184.792 950.433,187.575 							"/>
						</g>
					</g>
				</g>
				
					<rect x="940.233" y="179.543" transform="matrix(0.9201 -0.3917 0.3917 0.9201 7.6441 402.9608)" style="fill:#E27866;" width="102.666" height="6.399"/>
				<g>
					<path style="fill:#E27866;" d="M944.006,210.553c0.23-0.098,0.261-0.542,0.07-0.99l-4.308-10.121
						c-0.191-0.448-0.532-0.734-0.762-0.636l-5.557,2.365c-0.229,0.098-0.262,0.542-0.07,0.99l4.308,10.121
						c0.191,0.449,0.533,0.734,0.762,0.636L944.006,210.553z"/>
					<path style="fill:#E27866;" d="M945.405,201.73l0.929,2.182c1.13,2.654-0.106,5.72-2.76,6.85l-5.019-11.791
						C941.21,197.842,944.276,199.079,945.405,201.73z"/>
					<path style="fill:#E5D3B3;" d="M926.706,226.054c-7.363,3.134-15.764-0.04-18.763-7.087c-3-7.048,0.536-15.303,7.899-18.438
						c2.733-1.163,5.608-1.455,8.298-1.007l-0.01-0.024l9.853,1.108l5.244,12.318l-6.032,7.869l-0.01-0.023
						C931.643,223.021,929.439,224.891,926.706,226.054z"/>
					<path style="fill:#735F4F;" d="M935.24,203.583l-14.521,4.92l2.046,0.453c0.128,0.028,0.234,0.118,0.279,0.243
						c0.045,0.122,0.026,0.26-0.054,0.365l-1.553,2.061l2.703,0.303c0.137,0.016,0.255,0.103,0.31,0.23
						c0.052,0.131,0.039,0.273-0.044,0.383l-1.591,2.145l2.31,0.041c0.139,0.003,0.266,0.08,0.332,0.202
						c0.064,0.123,0.062,0.271-0.013,0.389l-1.038,1.646l13.498-7.152l0.304,0.71l-14.718,7.798
						c-0.154,0.082-0.344,0.049-0.462-0.078c-0.119-0.129-0.136-0.32-0.044-0.467l1.444-2.29l-2.375-0.043
						c-0.144-0.002-0.275-0.085-0.339-0.215c-0.062-0.127-0.049-0.284,0.036-0.399l1.638-2.209l-2.709-0.304
						c-0.137-0.016-0.256-0.103-0.31-0.23c-0.061-0.132-0.037-0.273,0.046-0.384l1.599-2.122l-2.808-0.623
						c-0.168-0.036-0.292-0.182-0.302-0.355c-0.009-0.172,0.098-0.33,0.261-0.386l15.771-5.344L935.24,203.583z"/>
				</g>
			</g>
		</g>
	</g>
</g>
<g id="vision">
	<g>
		<g>
			<path style="fill:#68564A;" d="M571.265,295.102l-4.779,35.477h-11.015l-4.789-35.477h7.589l2.703,24.789l2.678-24.789H571.265z"
				/>
			<path style="fill:#68564A;" d="M579.973,330.578h-7.793v-35.477h7.793V330.578z"/>
			<path style="fill:#68564A;" d="M581.507,316.378h7.076v8.139c0,0.809,0.49,1.212,1.473,1.212c0.947,0,1.422-0.404,1.422-1.212
				v-4.206c0-1.286-0.858-2.796-2.573-4.527c-3.315-3.216-5.377-5.376-6.185-6.482c-0.809-1.105-1.212-2.317-1.212-3.637v-3.983
				c0-4.602,3.006-6.902,9.018-6.902c5.385,0,8.077,2.095,8.077,6.284v6.135h-7.076v-6.531c0-0.709-0.395-1.064-1.186-1.064
				c-0.925,0-1.387,0.685-1.387,2.053l0.149,2.301c0,1.32,0.876,2.853,2.628,4.602c3.257,3.117,5.328,5.294,6.212,6.531
				c0.885,1.237,1.327,2.639,1.327,4.206v4.527c0,4.717-3.014,7.076-9.043,7.076c-5.814,0-8.72-2.144-8.72-6.432V316.378z"/>
			<path style="fill:#68564A;" d="M608.597,330.578h-7.793v-35.477h7.793V330.578z"/>
			<path style="fill:#68564A;" d="M610.081,324.517v-22.835c0-4.602,2.982-6.902,8.944-6.902c5.879,0,8.819,2.285,8.819,6.853
				v22.835c0,2.062-0.819,3.649-2.458,4.762c-1.638,1.113-3.775,1.67-6.41,1.67C613.046,330.9,610.081,328.772,610.081,324.517z
				 M620.249,324.888v-24.171c0-0.709-0.42-1.064-1.262-1.064c-0.874,0-1.311,0.355-1.311,1.064v24.171
				c0,0.71,0.437,1.064,1.311,1.064C619.829,325.952,620.249,325.598,620.249,324.888z"/>
			<path style="fill:#68564A;" d="M649.318,330.578h-8.016l-5.294-18.901v18.901h-6.507v-35.477h8.857l4.453,16.18v-16.18h6.507
				V330.578z"/>
		</g>
	</g>
	<g>
		<path style="fill:#735F4F;" d="M480.142,163.009c0,0,107.594,136.907,239.716,0C587.735,26.102,480.142,163.009,480.142,163.009z"
			/>
		<path style="fill:#E5D3B3;" d="M497.173,163.009c0,0,92.305,107.654,205.653,0C589.478,55.355,497.173,163.009,497.173,163.009z"
			/>
		<circle style="fill:#735F4F;" cx="600" cy="163.009" r="52.426"/>
		
			<ellipse transform="matrix(0.4506 -0.8927 0.8927 0.4506 184.1006 625.1772)" style="fill:#E5D3B3;" cx="600" cy="163.009" rx="40.827" ry="40.827"/>
		<g>
			<circle style="fill:#735F4F;" cx="600" cy="163.009" r="27.574"/>
			<path style="fill:#E5D3B3;" d="M600,154.137c0,5.811-4.711,10.522-10.522,10.522c-5.811,0-10.522-4.711-10.522-10.522
				c0-5.811,4.711-10.522,10.522-10.522C595.289,143.616,600,148.326,600,154.137z"/>
		</g>
	</g>
</g>
<g id="plan">
	<g>
		<path style="fill:#735F4F;" d="M256.503,251.627H143.497c-2.607,0-4.74-2.133-4.74-4.74V93.848c0-2.607,2.133-4.74,4.74-4.74
			h113.006c2.607,0,4.74,2.133,4.74,4.74v153.039C261.243,249.494,259.11,251.627,256.503,251.627z"/>
		<rect x="149.922" y="103.812" style="fill:#E27866;" width="100.155" height="138.798"/>
		<path style="fill:#685548;" d="M231.84,109.82h-63.68c-3.027,0-5.504-2.477-5.504-5.504V89.949c0-3.027,2.477-5.504,5.504-5.504
			h63.68c3.027,0,5.504,2.477,5.504,5.504v14.367C237.344,107.343,234.867,109.82,231.84,109.82z"/>
		<path style="fill:#735F4F;" d="M210.054,84.445c0,5.553-4.501,10.054-10.054,10.054s-10.054-4.501-10.054-10.054
			c0-5.553,4.501-10.054,10.054-10.054S210.054,78.892,210.054,84.445z"/>
		<g>
			<g>
				<rect x="161.303" y="124.188" style="fill:#735F4F;" width="56.979" height="3.239"/>
				<g>
					<rect x="223.949" y="119.33" style="fill:#735F4F;" width="12.954" height="12.954"/>
					<rect x="225.64" y="121.021" style="fill:#E27866;" width="9.571" height="9.571"/>
				</g>
				<g>
					
						<rect x="227.767" y="122.919" transform="matrix(0.7071 -0.7071 0.7071 0.7071 -22.7112 199.0469)" style="fill:#735F4F;" width="2.297" height="8.039"/>
					
						<rect x="235.797" y="113.335" transform="matrix(0.7071 0.7071 -0.7071 0.7071 156.3437 -131.5265)" style="fill:#735F4F;" width="2.297" height="19.267"/>
				</g>
			</g>
			<g>
				<rect x="161.303" y="146.893" style="fill:#735F4F;" width="56.979" height="3.239"/>
				<g>
					<rect x="223.949" y="142.036" style="fill:#735F4F;" width="12.954" height="12.954"/>
					<rect x="225.64" y="143.727" style="fill:#E27866;" width="9.571" height="9.571"/>
				</g>
			</g>
			<g>
				<rect x="161.303" y="173.584" style="fill:#735F4F;" width="56.979" height="3.239"/>
				<g>
					<rect x="223.949" y="168.727" style="fill:#735F4F;" width="12.954" height="12.954"/>
					<rect x="225.64" y="170.418" style="fill:#E27866;" width="9.571" height="9.571"/>
				</g>
				<g>
					
						<rect x="227.767" y="172.316" transform="matrix(0.7071 -0.7071 0.7071 0.7071 -57.6388 213.5237)" style="fill:#735F4F;" width="2.297" height="8.039"/>
					
						<rect x="235.797" y="162.732" transform="matrix(0.7071 0.7071 -0.7071 0.7071 191.2802 -117.0611)" style="fill:#735F4F;" width="2.297" height="19.267"/>
				</g>
			</g>
			<g>
				<rect x="161.303" y="196.29" style="fill:#735F4F;" width="56.979" height="3.239"/>
				<g>
					<rect x="223.949" y="191.432" style="fill:#735F4F;" width="12.954" height="12.954"/>
					<rect x="225.64" y="193.124" style="fill:#E27866;" width="9.571" height="9.571"/>
				</g>
			</g>
			<g>
				<rect x="161.303" y="222.981" style="fill:#735F4F;" width="56.979" height="3.239"/>
				<g>
					<rect x="223.949" y="218.123" style="fill:#735F4F;" width="12.954" height="12.954"/>
					<rect x="225.64" y="219.814" style="fill:#E27866;" width="9.571" height="9.571"/>
				</g>
				<g>
					
						<rect x="227.767" y="221.712" transform="matrix(0.7071 -0.7071 0.7071 0.7071 -92.5685 227.9927)" style="fill:#735F4F;" width="2.297" height="8.039"/>
					
						<rect x="235.797" y="212.128" transform="matrix(0.7071 0.7071 -0.7071 0.7071 226.2089 -102.5931)" style="fill:#735F4F;" width="2.297" height="19.267"/>
				</g>
			</g>
		</g>
	</g>
	<g>
		<path style="fill:#735F4F;" d="M133.451,317.516v13.063h-7.595v-35.477h8.189c3.249,0,5.661,0.413,7.237,1.237
			c1.575,0.825,2.362,2.507,2.362,5.047v9.846c0,2.325-0.643,3.971-1.93,4.935C140.427,317.132,137.673,317.582,133.451,317.516z
			 M136.048,310.564v-8.51c0-1.253-0.866-1.88-2.598-1.88v12.271C135.182,312.444,136.048,311.818,136.048,310.564z"/>
		<path style="fill:#735F4F;" d="M159.749,330.578h-14.621v-35.477h7.793v30.924h6.828V330.578z"/>
		<path style="fill:#735F4F;" d="M182.014,330.578h-7.722l-1.315-9.525h-3.458l-1.331,9.525h-7.722l5.828-35.477h9.881
			L182.014,330.578z M172.349,316.13l-1.121-10.589l-1.061,10.589H172.349z"/>
		<path style="fill:#735F4F;" d="M203.068,330.578h-8.016l-5.294-18.901v18.901h-6.507v-35.477h8.857l4.453,16.18v-16.18h6.507
			V330.578z"/>
		<path style="fill:#735F4F;" d="M224.591,330.578h-8.016l-5.294-18.901v18.901h-6.507v-35.477h8.857l4.453,16.18v-16.18h6.506
			V330.578z"/>
		<path style="fill:#735F4F;" d="M233.967,330.578h-7.793v-35.477h7.793V330.578z"/>
		<path style="fill:#735F4F;" d="M255.342,330.578h-8.016l-5.294-18.901v18.901h-6.506v-35.477h8.857l4.453,16.18v-16.18h6.507
			V330.578z"/>
		<path style="fill:#735F4F;" d="M274.145,330.578h-3.736l-1.015-1.954c-1.715,1.517-3.53,2.276-5.443,2.276
			c-1.864,0-3.493-0.482-4.886-1.447c-1.394-0.965-2.091-2.503-2.091-4.614v-23.156c0-4.602,2.936-6.902,8.807-6.902
			c5.574,0,8.362,2.095,8.362,6.284v6.581h-7.076v-7.174c0-0.577-0.383-0.866-1.15-0.866c-0.767,0-1.15,0.289-1.15,0.866v24.616
			c0,0.577,0.384,0.866,1.15,0.866c0.767,0,1.15-0.288,1.15-0.866v-6.63h-1.583v-5.443h8.659V330.578z"/>
	</g>
</g>
</svg>
